<svg xmlns="http://www.w3.org/2000/svg" xmlns:xlink="http://www.w3.org/1999/xlink" viewBox="0 0 1000 1033.26"><defs><style>.cls-1,.cls-12,.cls-15,.cls-7,.cls-9{fill:none;}.cls-2{clip-path:url(#clip-path);}.cls-3{fill:#8ed1e3;}.cls-4{fill:#cae8f2;}.cls-5{fill:#4cb5c3;}.cls-6{fill:#1d1d1b;}.cls-7{stroke:#1d1d1b;}.cls-12,.cls-15,.cls-7{stroke-miterlimit:10;}.cls-8{fill:#432918;}.cls-15,.cls-9{stroke:#724a20;stroke-linecap:round;stroke-width:9px;}.cls-9{stroke-linejoin:round;}.cls-10{fill:#72491d;}.cls-11{fill:#f2f2f2;}.cls-12{stroke:#000;}.cls-13{fill:#fff;}.cls-14{fill:#4d2f13;}.cls-16{fill:#8b6734;}.cls-17{clip-path:url(#clip-path-2);}.cls-18{fill:#683c11;}.cls-19{fill:#7d4e24;}.cls-20{fill:#936037;}.cls-21{fill:#b17f4a;}.cls-22{fill:#634e42;}.cls-23{fill:#724a20;}.cls-24{fill:#d6d7d7;}.cls-25{fill:#010101;}.cls-26{fill:#9e7238;}.cls-27{fill:#2799aa;}.cls-28{fill:#12859a;}</style><clipPath id="clip-path" transform="translate(-132.02 -461.07)"><path class="cls-1" d="M264,1177.84c15,18.81,31.57,36.34,48,53.9,8.85,9.45,17.06,20.1,27,28.38,6.17,5.14,10.33,12.79,15.62,18.89,12.27,14.11,26.57,26.28,41.05,38,20.52,16.65,41.7,32.62,64.49,46A287.87,287.87,0,0,0,495.57,1381c12.3,5.11,25.14,7.6,37.6,12,35.23,12.3,76.7,14.44,114,13,49.39-1.88,99.56-15,139.69-44.82,16.89-12.57,31.3-27.9,48.89-39.74,21.8-14.68,45.78-25.65,69.58-36.62,26.6-12.26,53.45-24.67,77-42.29,76-56.79,105.18-157.79,109.64-252.57,3.87-82.16-7.19-164.61-27.69-244.26-26.35-102.36-69.36-202.3-139.12-281.71S756.6,327.22,651,321.9c-121-6.11-239.48,57.52-315.58,151.83-31.68,39.27-56.74,83.62-75.54,130.39C241,651.19,228.34,700.68,221,750.84c-7.76,53-6.78,106.65-13.5,159.74-4.61,36.37-9.79,70.64-7.42,107.51,3.42,53.05,22.08,101.81,52.86,145.09Q258.24,1170.67,264,1177.84Z"/></clipPath><clipPath id="clip-path-2" transform="translate(-132.02 -461.07)"><path class="cls-1" d="M536.44,1222.18c59.25,26.77,131.14,23.53,190-4,19.67-9.21,38.52-21.44,50.57-38.94,8.58-12.48,13.31-27.09,15.85-41.83,4.62-26.88.43-58.12-21.94-75-15.54-11.69-37.12-14-56.44-10s-36.86,13.51-53.56,23.62c-26.15,15.83-51.29,33.5-79.47,45.71s-60.42,18.67-90.22,10.73c-30-8-48.49-29.35-57.38-56.6C414.05,1131.94,490.44,1201.39,536.44,1222.18Z"/></clipPath></defs><g id="Calque_23" data-name="Calque 23"><g class="cls-2"><path class="cls-3" d="M1132,1125.38v292.47H132V1094.36a236.44,236.44,0,0,1,95.45-4c36.86,6.14,71.74,21,108.32,28.58a340.86,340.86,0,0,0,60.7,6.69c43.24,1.14,87-4.18,130.19-8.67q110.48-11.49,221.58-15.43c63.78-2.27,127.81-2.66,191.23,4.45,47.39,5.32,94.32,14.82,141.91,17.74C1098.21,1124.79,1115.13,1125,1132,1125.38Z" transform="translate(-132.02 -461.07)"/><path class="cls-4" d="M1132,1139.11v278.74H141.08v-263.3l90.2-30.71c15-5.11,31.32-10.23,46.28-5.07,10.38,3.58,18.5,11.6,27.37,18.09,18.55,13.58,40.58,20.51,63.48,23.08h0a228.62,228.62,0,0,0,50.64-.44c39.44-4.43,77.9-15.92,117.44-19.28,80.85-6.87,162.6,20.45,242.69,7.36,43.84-7.16,85.76-26.29,130.15-27.53,60.67-1.69,118.93,30.24,179.5,26.48C1103.4,1145.63,1117.75,1142.67,1132,1139.11Z" transform="translate(-132.02 -461.07)"/><path class="cls-5" d="M1132,1139.11v278.74H132v-263.3l91-30.71c15.12-5.11,31.6-10.23,46.7-5.07,10.47,3.58,18.67,11.6,27.62,18.09,18.72,13.58,40.95,20.51,64.06,23.08h0a232.78,232.78,0,0,0,51.1-.44c39.8-4.43,78.62-15.92,118.52-19.28,81.59-6.87,164.08,20.45,244.91,7.36,44.24-7.16,86.54-26.29,131.34-27.53,61.22-1.69,120,30.24,181.14,26.48C1103.14,1145.63,1117.62,1142.67,1132,1139.11Z" transform="translate(-132.02 -461.07)"/><path class="cls-6" d="M378.07,671.05a21.73,21.73,0,0,1,16.64-9.41c-6.52,4.9-13.15,10.14-17,17.34.08.18.07.07.15.24a21.69,21.69,0,0,0-17.39-13.71,5.94,5.94,0,0,1,4.39-1.23,14.36,14.36,0,0,1,4.48.7C372.67,666.3,376,668.12,378.07,671.05Z" transform="translate(-132.02 -461.07)"/><path class="cls-6" d="M355.33,683.7a10.34,10.34,0,0,1,7.91-4.48c-3.1,2.33-6.25,4.83-8.07,8.25,0,.08,0,0,.07.11a10.34,10.34,0,0,0-8.27-6.52,2.81,2.81,0,0,1,2.09-.58,6.84,6.84,0,0,1,2.13.33A8.9,8.9,0,0,1,355.33,683.7Z" transform="translate(-132.02 -461.07)"/><path class="cls-6" d="M326.8,662.26a21.73,21.73,0,0,1,16.64-9.41c-6.52,4.9-13.15,10.14-17,17.34.08.18.07.06.15.24a21.69,21.69,0,0,0-17.39-13.71,5.94,5.94,0,0,1,4.39-1.23,14.36,14.36,0,0,1,4.48.7C321.4,657.51,324.77,659.32,326.8,662.26Z" transform="translate(-132.02 -461.07)"/><path class="cls-6" d="M848.37,803A21.82,21.82,0,0,1,865,793.63c-6.52,4.91-13.14,10.15-17,17.35.09.17.07.06.16.24a21.72,21.72,0,0,0-17.4-13.71,6,6,0,0,1,4.39-1.23,14.19,14.19,0,0,1,4.49.7C843,798.29,846.34,800.11,848.37,803Z" transform="translate(-132.02 -461.07)"/><path class="cls-6" d="M827.81,746.51a21.82,21.82,0,0,1,16.65-9.41c-6.53,4.91-13.15,10.14-17,17.35.09.17.07.06.16.23A21.7,21.7,0,0,0,810.24,741a6,6,0,0,1,4.39-1.24,14.41,14.41,0,0,1,4.48.71C822.42,741.76,825.79,743.58,827.81,746.51Z" transform="translate(-132.02 -461.07)"/><path class="cls-6" d="M662.19,542.7a10.4,10.4,0,0,1,7.92-4.48c-3.1,2.34-6.25,4.83-8.08,8.26,0,.08,0,0,.08.11a10.33,10.33,0,0,0-8.28-6.52,2.83,2.83,0,0,1,2.09-.59,6.52,6.52,0,0,1,2.13.34A8.78,8.78,0,0,1,662.19,542.7Z" transform="translate(-132.02 -461.07)"/><path class="cls-6" d="M793.94,814.56a14.85,14.85,0,0,1,11.33-6.41c-4.44,3.34-8.95,6.91-11.56,11.81.06.12,0,0,.11.16A14.81,14.81,0,0,0,782,810.79a4.07,4.07,0,0,1,3-.84,9.75,9.75,0,0,1,3,.48A12.58,12.58,0,0,1,793.94,814.56Z" transform="translate(-132.02 -461.07)"/><path class="cls-7" d="M319,906c21.73-5.08,48.32-33.4,60.88-51.85,25.34-37.22,27.42-65.87,30.93-110.77A129.1,129.1,0,0,0,443,648.49c-.54-7.23-1.7-14.39-2.86-21.55,24.21-11.41,38.83-32.66,54.26-54.53L527.19,526c21.68,40.61,48.28,77.47,78.58,112.12l-4.54-4.45" transform="translate(-132.02 -461.07)"/><path class="cls-7" d="M435.5,864.75c22.68-18.5,34.37-47.82,37.57-76.92s-1.16-58.42-5.52-87.37c15.1.47,31.21-5.9,44.88-12.34a444.42,444.42,0,0,0,74.31-44.4c14.58-10.77,28.86-22.86,37.35-38.87,11.27,9.7,20.35,20.42,29.89,31.83,22.76,27.22,54.8,44.68,86,61.51-11.89,59.16,5.23,118.81,42.92,165.94-10,22.89-13.53,56.94-9.74,81.63s6.25,39.76,14.59,63.3c3.3,9.29,10.66,22.25,14,31.54" transform="translate(-132.02 -461.07)"/><path class="cls-8" d="M567,1097.2c-20.72-8.82-40.26-20.19-60.81-29.41-9.5-4.27-19.34-8.11-29.66-9.48s-21.28-.12-30.21,5.25-15.45,15.27-15.15,25.68c.32,11.3,8.05,20.86,15.55,29.33,5.8,6.54,11.73,13,18.7,18.32,23.29,17.62,54.64,19.26,83.84,18.88,14.83-.19,29.94-.77,43.91-5.76,10.33-3.68,37.85-20,31-34.75-3.42-7.34-18.69-6-25.48-7.52A185.71,185.71,0,0,1,567,1097.2Z" transform="translate(-132.02 -461.07)"/><path class="cls-9" d="M530.77,1117.09c-38.7,5.43-78.71-21.77-89.87-59.22v53.42" transform="translate(-132.02 -461.07)"/><rect class="cls-10" x="192.24" y="622.76" width="353.57" height="5.9" rx="2.2"/><rect class="cls-10" x="180.99" y="440.56" width="353.57" height="5.9" rx="2.2"/><rect class="cls-10" x="280.29" y="415.13" width="361.55" height="5.9" rx="2.2"/><path class="cls-10" d="M627.06,560.22l5,545.27h-14.5l5.64-545.44a1.67,1.67,0,0,1,1.67-1.66h.38A1.85,1.85,0,0,1,627.06,560.22Z" transform="translate(-132.02 -461.07)"/><path class="cls-10" d="M530.89,463.43l6.41,689.38H518.57l7.28-689.6a2.16,2.16,0,0,1,2.17-2.14h.49A2.38,2.38,0,0,1,530.89,463.43Z" transform="translate(-132.02 -461.07)"/><rect class="cls-10" x="307.47" y="256.96" width="274.76" height="7.29" rx="2.2"/><rect class="cls-10" x="262.69" y="278.75" width="274.76" height="7.29" rx="2.2"/><path class="cls-11" d="M600.21,720.13c-50.07-20.81-135.81-4.71-157.58,3.87,6.81-16.64,10.26-69.67-5.31-98.11,44.36-14.86,148.13-9,162.89.38C618.59,645.62,609.77,711.67,600.21,720.13Z" transform="translate(-132.02 -461.07)"/><path class="cls-11" d="M637.65,873.56c-68.44-28.43-185.64-6.43-215.4,5.3,9.31-22.75,14-95.23-7.25-134.1,60.64-20.32,202.48-12.26,222.65.51C662.78,771.72,650.72,862,637.65,873.56Z" transform="translate(-132.02 -461.07)"/><path class="cls-11" d="M656.27,1085.14c-95.08-39.5-257.88-8.93-299.23,7.36C370,1060.89,376.54,960.21,347,906.21c84.23-28.22,281.28-17,309.3.71C691.17,943.67,674.42,1069.08,656.27,1085.14Z" transform="translate(-132.02 -461.07)"/><rect class="cls-10" x="338.14" y="236.97" width="274.76" height="7.29" rx="2.2"/><rect class="cls-10" x="344.28" y="364.46" width="274.76" height="7.29" rx="2.2"/><rect class="cls-10" x="307.68" y="400.03" width="344.82" height="7.29" rx="2.2"/><rect class="cls-10" x="320.27" y="576.58" width="353.57" height="5.9" rx="2.2"/><line class="cls-7" x1="345.54" y1="638.39" x2="387.15" y2="439.62"/><line class="cls-7" x1="338.85" y1="633.79" x2="380.48" y2="434.9"/><line class="cls-7" x1="332.33" y1="628.39" x2="373.82" y2="430.18"/><line class="cls-7" x1="326.24" y1="620.9" x2="367.15" y2="425.46"/><line class="cls-7" x1="352.26" y1="642.88" x2="393.82" y2="444.34"/><line class="cls-12" x1="354.02" y1="634.45" x2="327.36" y2="615.57"/><line class="cls-12" x1="356.14" y1="625.61" x2="329.48" y2="606.74"/><line class="cls-12" x1="357.45" y1="617.25" x2="330.78" y2="598.37"/><line class="cls-12" x1="358.99" y1="609.05" x2="332.33" y2="590.17"/><line class="cls-12" x1="360.98" y1="600.64" x2="334.31" y2="581.76"/><line class="cls-12" x1="362.88" y1="591.65" x2="336.22" y2="572.78"/><line class="cls-12" x1="364.85" y1="583.23" x2="338.18" y2="564.35"/><line class="cls-12" x1="366.88" y1="574.86" x2="340.22" y2="555.98"/><line class="cls-12" x1="368.27" y1="566.03" x2="341.61" y2="547.15"/><line class="cls-12" x1="369.9" y1="557.37" x2="343.23" y2="538.49"/><line class="cls-12" x1="371.88" y1="548.96" x2="345.22" y2="530.08"/><line class="cls-12" x1="373.7" y1="540.44" x2="347.04" y2="521.56"/><line class="cls-12" x1="375.53" y1="531.91" x2="348.86" y2="513.03"/><line class="cls-12" x1="376.91" y1="523.08" x2="350.24" y2="504.2"/><line class="cls-12" x1="378.95" y1="514.71" x2="352.28" y2="495.83"/><line class="cls-12" x1="380.58" y1="506.05" x2="353.91" y2="487.17"/><line class="cls-12" x1="382.56" y1="497.64" x2="355.9" y2="478.76"/><line class="cls-12" x1="384.38" y1="489.12" x2="357.72" y2="470.24"/><line class="cls-7" x1="439.99" y1="660.74" x2="458.07" y2="446.62"/><line class="cls-7" x1="433.8" y1="641.37" x2="450.51" y2="443.5"/><line class="cls-7" x1="425.62" y1="645.68" x2="442.95" y2="440.38"/><line class="cls-7" x1="417.43" y1="650.04" x2="435.39" y2="437.26"/><line class="cls-7" x1="450.2" y1="632.45" x2="465.63" y2="449.74"/><line class="cls-12" x1="450.93" y1="627.12" x2="418.8" y2="633.79"/><line class="cls-12" x1="451.42" y1="618.05" x2="419.85" y2="624.6"/><line class="cls-12" x1="452.25" y1="609.38" x2="420.12" y2="616.05"/><line class="cls-12" x1="452.79" y1="600.94" x2="420.65" y2="607.61"/><line class="cls-12" x1="453.76" y1="592.2" x2="421.62" y2="598.87"/><line class="cls-12" x1="454.57" y1="582.9" x2="422.43" y2="589.58"/><line class="cls-12" x1="455.51" y1="574.15" x2="423.37" y2="580.82"/><line class="cls-12" x1="455.85" y1="565.57" x2="424.4" y2="572.1"/><line class="cls-12" x1="456.83" y1="556.41" x2="424.69" y2="563.08"/><line class="cls-12" x1="457.39" y1="547.5" x2="425.26" y2="554.17"/><line class="cls-12" x1="458.36" y1="538.75" x2="426.22" y2="545.42"/><line class="cls-12" x1="459.14" y1="529.93" x2="427.01" y2="536.6"/><line class="cls-12" x1="459.92" y1="521.11" x2="427.79" y2="527.78"/><line class="cls-12" x1="460.21" y1="512.09" x2="428.08" y2="518.76"/><line class="cls-12" x1="461.24" y1="503.37" x2="429.11" y2="510.04"/><line class="cls-12" x1="461.8" y1="494.46" x2="429.67" y2="501.13"/><line class="cls-12" x1="462.77" y1="485.71" x2="430.64" y2="492.39"/><line class="cls-12" x1="463.56" y1="476.89" x2="431.42" y2="483.57"/><path class="cls-13" d="M725.05,830.85c-69.55-28.9-188.66-6.54-218.9,5.38,9.46-23.12,14.26-96.78-7.37-136.29,61.62-20.64,205.78-12.45,226.27.53C750.59,727.35,738.33,819.1,725.05,830.85Z" transform="translate(-132.02 -461.07)"/><path class="cls-13" d="M771.38,1044c-95.08-39.5-257.88-8.93-299.22,7.36,12.93-31.6,19.49-132.29-10.08-186.29,84.23-28.22,281.28-17,309.3.72C806.29,902.52,789.53,1027.94,771.38,1044Z" transform="translate(-132.02 -461.07)"/><g id="perchoir"><rect class="cls-14" x="511.16" y="585.43" width="33.63" height="4.87" rx="2.2" transform="translate(-191.91 654.77) rotate(-90)"/><polygon class="cls-14" points="409.7 110.11 406.86 143.68 402 143.48 404.83 109.91 409.7 110.11"/><polygon class="cls-14" points="421.26 110.34 415.05 143.69 410.21 143.25 416.43 109.91 421.26 110.34"/><polygon class="cls-14" points="382.21 110.11 385.06 143.68 389.92 143.48 387.08 109.91 382.21 110.11"/><polygon class="cls-14" points="370.66 110.34 376.87 143.69 381.7 143.25 375.49 109.91 370.66 110.34"/><rect class="cls-10" x="368.37" y="105.46" width="55.09" height="7.98" rx="2.2"/><rect class="cls-10" x="374.15" y="137.7" width="43.55" height="7.98" rx="2.2"/></g><g id="perchoir-2" data-name="perchoir"><rect class="cls-14" x="609.66" y="639.3" width="30.29" height="4.39" rx="2.2" transform="translate(-148.7 805.23) rotate(-90)"/><polygon class="cls-14" points="505.17 165.39 502.61 195.63 498.23 195.46 500.79 165.22 505.17 165.39"/><polygon class="cls-14" points="515.58 165.6 509.99 195.64 505.63 195.25 511.23 165.21 515.58 165.6"/><polygon class="cls-14" points="480.41 165.39 482.97 195.63 487.35 195.46 484.79 165.22 480.41 165.39"/><polygon class="cls-14" points="470 165.6 475.59 195.64 479.94 195.25 474.35 165.21 470 165.6"/><rect class="cls-10" x="467.94" y="161.2" width="49.63" height="7.19" rx="2.2"/><rect class="cls-10" x="473.14" y="190.25" width="39.23" height="7.19" rx="2.2"/></g><path class="cls-11" d="M627.27,610.72S615.12,943.11,732,1038.17c.14-14.56,14.61-54.58,41.23-43.62C666.11,896.93,627.27,610.72,627.27,610.72Z" transform="translate(-132.02 -461.07)"/><path class="cls-9" d="M790.45,1099.53v-35.31c-7.09-21.74-27.15-37.83-49.31-43.49s-46-1.85-67,7.08-39.69,22.71-57.21,37.41c-26,21.85-52.45,47.15-86.13,51.87" transform="translate(-132.02 -461.07)"/><line class="cls-15" x1="548.03" y1="565.88" x2="548.03" y2="611.14"/><line class="cls-15" x1="574.6" y1="558.43" x2="574.6" y2="603.69"/><line class="cls-15" x1="521.46" y1="578.53" x2="521.46" y2="623.79"/><line class="cls-15" x1="494.88" y1="595.51" x2="494.88" y2="640.77"/><line class="cls-15" x1="468.31" y1="621.79" x2="468.31" y2="667.06"/><line class="cls-15" x1="441.74" y1="640.77" x2="441.74" y2="686.03"/><line class="cls-15" x1="415.17" y1="654.75" x2="415.17" y2="700.02"/><line class="cls-15" x1="388.6" y1="662.06" x2="388.6" y2="707.33"/><line class="cls-15" x1="362.03" y1="653.54" x2="362.03" y2="698.8"/><line class="cls-15" x1="335.46" y1="638.39" x2="335.46" y2="683.65"/><line class="cls-15" x1="639.8" y1="576.67" x2="639.8" y2="621.93"/><path class="cls-16" d="M536.44,1222.18c59.25,26.77,131.14,23.53,190-4,19.67-9.21,38.52-21.44,50.57-38.94,8.58-12.48,13.31-27.09,15.85-41.83,4.62-26.88.43-58.12-21.94-75-15.54-11.69-37.12-14-56.44-10s-36.86,13.51-53.56,23.62c-26.15,15.83-51.29,33.5-79.47,45.71s-60.42,18.67-90.22,10.73c-30-8-48.49-29.35-57.38-56.6C414.05,1131.94,490.44,1201.39,536.44,1222.18Z" transform="translate(-132.02 -461.07)"/><g class="cls-17"><path class="cls-18" d="M775.78,1062c29.29,23.73,28.44,58.34,17.56,92a49.41,49.41,0,0,0-5.51-23.66l-1.05-2.89c1.37-7.82-3.18-15.13-18.36-23.06-4.7-1.79-21-7.54-24.8-4.83-25,2-48.83,10-71,21.28-.16-.58-.33-1.16-.5-1.74l4.77-2.85a129.21,129.21,0,0,1-16-39c5.8-8.46,19-14.32,27.55-19.22C715.24,1046.1,753.47,1037.58,775.78,1062Z" transform="translate(-132.02 -461.07)"/><path class="cls-19" d="M787.83,1130.3c2.26,6.14,4.44,12.31,5.19,18.74-1.71,14.85-10.26,30.28-22.35,39.3a46.53,46.53,0,0,0,1.9-13,47.7,47.7,0,0,0-.63-24.6c7.25-8.48,13.2-15.78,14.7-22.66C787.06,1128.81,787.46,1129.55,787.83,1130.3Z" transform="translate(-132.02 -461.07)"/><path class="cls-18" d="M786.78,1127.41l1.05,2.89c-.37-.75-.77-1.49-1.19-2.22h0C786.7,1127.85,786.74,1127.63,786.78,1127.41Z" transform="translate(-132.02 -461.07)"/><path class="cls-8" d="M768.42,1104.35c15.18,7.93,19.73,15.24,18.36,23.06-1.1-3-2.16-6-3-9-.36,1.16-.79,2.3-1.25,3.44-8.5-11-21.23-18.85-35.42-20.26l-.27,0a15.61,15.61,0,0,1,.46-2.32c-1.22.07-2.44.15-3.65.26C747.39,1096.81,763.72,1102.56,768.42,1104.35Z" transform="translate(-132.02 -461.07)"/><path class="cls-19" d="M786.78,1127.41c0,.22-.08.44-.14.66a54.94,54.94,0,0,0-4.14-6.21c.46-1.14.89-2.28,1.25-3.44C784.62,1121.44,785.68,1124.43,786.78,1127.41Z" transform="translate(-132.02 -461.07)"/><path class="cls-20" d="M786.64,1128.07h0c-1.5,6.88-7.45,14.18-14.7,22.66-.3-1-.65-2-1-3,2-9,8-17.22,11.6-25.9A54.94,54.94,0,0,1,786.64,1128.07Z" transform="translate(-132.02 -461.07)"/><path class="cls-21" d="M782.5,1121.86c-3.56,8.68-9.61,16.92-11.6,25.9.39,1,.74,2,1,3l-2.72,3.18a47,47,0,0,0-2.71-5.52c-3.7-7.93-9.54-15.22-17.25-18.9a25.32,25.32,0,0,0-7.56-2.28c6-4,4-17.82,5.11-25.64l.27,0C761.27,1103,774,1110.81,782.5,1121.86Z" transform="translate(-132.02 -461.07)"/><path class="cls-20" d="M769.22,1153.92a45.36,45.36,0,0,1,3.35,20.11c0,.43,0,.87,0,1.31a55.5,55.5,0,0,1-6.3,15.92,43,43,0,0,0,4.4-2.92c-2.23,7.3-6.6,13.71-14.1,16.37a26.42,26.42,0,0,0-1.88-11.21s0,0,0,0c-2.82-11.83-11.8-19.66-23-24.11-1.59-1.17-3.15-2.31-4.65-3.45,0-.1-.09-.21-.13-.31a6.14,6.14,0,0,0,2.73-3q9.54-16.06,19.1-32.11a48.3,48.3,0,0,1,17.82,17.91,51.22,51.22,0,0,1,2.35,5.94Z" transform="translate(-132.02 -461.07)"/><path class="cls-20" d="M772.57,1175.34a46.53,46.53,0,0,1-1.9,13,43,43,0,0,1-4.4,2.92A55.5,55.5,0,0,0,772.57,1175.34Z" transform="translate(-132.02 -461.07)"/><path class="cls-20" d="M769.22,1153.92l-.36.42a51.22,51.22,0,0,0-2.35-5.94A47,47,0,0,1,769.22,1153.92Z" transform="translate(-132.02 -461.07)"/><path class="cls-8" d="M754.69,1193.5a35.38,35.38,0,0,1,.91,9q-9.57,5.65-19.52,10.65c1.83-13.24-8.25-28.14-22.34-28.13a4.27,4.27,0,0,0-2.67.6l-.54-.15q1.19-2,2.47-4.17c-10.38,1.93-21.21,3.4-32,5.25.92-4.92-1-13.38,2.08-17.38a258.1,258.1,0,0,1,38.18-2.88,61.86,61.86,0,0,1,10.35,3.06c9,6.63,18.94,13.93,23,24.11C754.68,1193.46,754.68,1193.48,754.69,1193.5Z" transform="translate(-132.02 -461.07)"/><path class="cls-8" d="M749.19,1129.64l-.5.85c-.7-.42-1.41-.81-2.14-1.17C747.43,1129.39,748.31,1129.5,749.19,1129.64Z" transform="translate(-132.02 -461.07)"/><path class="cls-8" d="M746.55,1129.32c.73.36,1.44.75,2.14,1.17q-9.56,16.07-19.1,32.11a6.14,6.14,0,0,1-2.73,3c-.53-1.46.27-2.78,1.07-4q9.9-15.7,18.4-32.24Z" transform="translate(-132.02 -461.07)"/><path class="cls-20" d="M731.64,1169.34c11.23,4.45,20.21,12.28,23,24.11C750.58,1183.27,740.66,1176,731.64,1169.34Z" transform="translate(-132.02 -461.07)"/><path class="cls-18" d="M747.27,1099.26a15.61,15.61,0,0,0-.46,2.32c-1.19-.09-2.37-.14-3.56-.17.09-.62.19-1.23.29-1.84l.08,0C744.83,1099.41,746.05,1099.33,747.27,1099.26Z" transform="translate(-132.02 -461.07)"/><path class="cls-20" d="M746.55,1129.32l-.22,0,0-.08Z" transform="translate(-132.02 -461.07)"/><path class="cls-18" d="M746.81,1101.58c-1.06,7.82.85,21.61-5.11,25.64-.52-.07-1.05-.13-1.58-.17,1.2-8.5,1.81-17.19,3.13-25.64C744.44,1101.44,745.62,1101.49,746.81,1101.58Z" transform="translate(-132.02 -461.07)"/><path class="cls-18" d="M743.62,1099.52l-.08,0c-.1.61-.2,1.22-.29,1.84-24.53-.59-48.16,11-70.32,20.55-.11-.39-.22-.77-.34-1.16C694.79,1109.49,718.67,1101.5,743.62,1099.52Z" transform="translate(-132.02 -461.07)"/><path class="cls-19" d="M719.51,1132.93c8.77-2.29,17.84-4.4,26.82-3.63q-8.48,16.52-18.4,32.24c-.8,1.26-1.6,2.58-1.07,4a6.89,6.89,0,0,1-4,.7h-1.55a76.06,76.06,0,0,0-33.55.68,6,6,0,0,0-4.63,2.2l-2.24.35c0-.42,0-.84-.07-1.26-20.16,2.46-40.15,8.8-59.95,15.12-.42-1-.85-2.14-1.27-3.26-.62-3.94-1.38-8.23-3.47-10.47a.57.57,0,0,1,.13-.14l30.85-13q5.88-2.31,11.82-4.49c13.92-2.45,27.05-8.15,40.31-13.36,0,0,0,0,0,0Q709.35,1135.59,719.51,1132.93Z" transform="translate(-132.02 -461.07)"/><path class="cls-16" d="M672.93,1122c22.16-9.5,45.79-21.14,70.32-20.55-1.32,8.45-1.93,17.14-3.13,25.64.53,0,1.06.1,1.58.17a7.13,7.13,0,0,1-4.38,1.15c-13.29,1-25.73,5.38-38.05,10.22,0,0,0,0,0,0q-20.36,6-40.31,13.36c-1.69.3-3.4.56-5.11.76a95.31,95.31,0,0,0-3.14-14.86,10,10,0,0,1,3.32-6.63c6.06-3.7,12.26-7.2,18.61-10.43C672.71,1121.19,672.82,1121.57,672.93,1122Z" transform="translate(-132.02 -461.07)"/><path class="cls-16" d="M713.74,1185c14.09,0,24.17,14.89,22.34,28.13-1.32.66-2.64,1.32-4,2,0-17-8.9-26.24-21-29.49A4.27,4.27,0,0,1,713.74,1185Z" transform="translate(-132.02 -461.07)"/><path class="cls-16" d="M736.08,1213.14a20.68,20.68,0,0,1-1.6,5.72c-7.8,4.4-16.69,7-25.15,10a29.49,29.49,0,0,0-7.67-12.59h0a29.9,29.9,0,0,0-4.25-3.71l0,0a4.64,4.64,0,0,1-1.47-5.31c3.3-3.67,7.49-9.88,13.63-20.1l0-.05a4.5,4.5,0,0,1,1.52-1.49c12.14,3.25,21.06,12.52,21,29.49C733.44,1214.46,734.76,1213.8,736.08,1213.14Z" transform="translate(-132.02 -461.07)"/><path class="cls-21" d="M713,1181.29q-1.29,2.19-2.47,4.17c-9-2.26-19.68-1.3-29.79,2.21a8.87,8.87,0,0,0,.29-1.13C691.79,1184.69,702.62,1183.22,713,1181.29Z" transform="translate(-132.02 -461.07)"/><path class="cls-20" d="M710.53,1185.46l-1,1.64,0,.05c-8.69,11-12.6,16.61-13.63,20.1A22.07,22.07,0,0,1,693,1210c-4.47-2-9.35-2.63-13.86-1-15-2.12-30.27,3.58-43.89,10.52l-2,1.05c-1.86-5.34-6.11-9.84-7.78-14.92l.91-.61c13-5.79,26.08-11.56,39.56-15.6,5-1.13,10.06-2.09,15.14-3a8.87,8.87,0,0,1-.29,1.13C690.85,1184.16,701.54,1183.2,710.53,1185.46Z" transform="translate(-132.02 -461.07)"/><path class="cls-20" d="M708.34,1229.07c.2,1,1.31,9.63.1,9.87-18.18,3.1-37.45,5.77-55.71,3.52,8.45-6.9,15.95-18.18,26.91-31.59,5.81,1,8.89,2.64,13.34-.84a26.32,26.32,0,0,1,4.38,2.53l0,0c1.1,1.06,2.6,2.14,4.25,3.71h0A24.79,24.79,0,0,1,708.34,1229.07Z" transform="translate(-132.02 -461.07)"/><path class="cls-8" d="M687.74,1167a76.06,76.06,0,0,1,33.55-.68,258.1,258.1,0,0,0-38.18,2.88A6,6,0,0,1,687.74,1167Z" transform="translate(-132.02 -461.07)"/><path class="cls-21" d="M709.52,1187.15c-6.14,10.22-10.33,16.43-13.63,20.1C696.92,1203.76,700.83,1198.12,709.52,1187.15Z" transform="translate(-132.02 -461.07)"/><path class="cls-20" d="M697.4,1212.59a29.9,29.9,0,0,1,4.25,3.71C700,1214.73,698.5,1213.65,697.4,1212.59Z" transform="translate(-132.02 -461.07)"/><path class="cls-21" d="M693,1210c-4.45,3.48-7.53,1.87-13.34.84.41-.5.83-1,1.26-1.53-.59-.11-1.19-.2-1.78-.28C683.63,1207.4,688.51,1208,693,1210Z" transform="translate(-132.02 -461.07)"/><path class="cls-8" d="M699.22,1138.6c-13.26,5.21-26.39,10.91-40.31,13.36Q678.83,1144.63,699.22,1138.6Z" transform="translate(-132.02 -461.07)"/><path class="cls-18" d="M680.87,1169.51a95,95,0,0,1-.53,16.43,141,141,0,0,0-14.45,3.56c-14.1,3.18-27.68,7.73-39.56,15.6l-3.61,1.61a2.72,2.72,0,0,0-.55.06c-9.12,3.5-18.27,7.1-27.52,10.39l-.66-1.68,3.76-1.26c-3.17-10.52-4.4-16.17-6.24-18.76,9.89-3,19.67-6.18,29.27-9.14a21.19,21.19,0,0,1-.63-2.72l.7-.23c.42,1,.84,2,1.24,2.76A259,259,0,0,1,680.87,1169.51Z" transform="translate(-132.02 -461.07)"/><path class="cls-8" d="M680.8,1168.25c0,.42.05.84.07,1.26a259,259,0,0,0-58.78,16.62c-.4-.79-.82-1.73-1.24-2.76C640.65,1177.05,660.64,1170.71,680.8,1168.25Z" transform="translate(-132.02 -461.07)"/><path class="cls-21" d="M680.9,1209.34c-.43.51-.85,1-1.26,1.53-1-.18-2.11-.34-3.31-.45a15.6,15.6,0,0,1,2.79-1.36C679.71,1209.14,680.31,1209.23,680.9,1209.34Z" transform="translate(-132.02 -461.07)"/><path class="cls-20" d="M676.33,1210.42c1.2.11,2.3.27,3.31.45-11,13.41-18.46,24.69-26.91,31.59l-1.37-.18c-2.48-3.78,12.21-15.27,14.46-19.64,3.14-3.94,5.89-8.56,9.82-11.78C675.87,1210.7,676.1,1210.56,676.33,1210.42Z" transform="translate(-132.02 -461.07)"/><path class="cls-21" d="M679.12,1209.06a15.6,15.6,0,0,0-2.79,1.36c-7.8-.76-20,.5-42.6,12a16.14,16.14,0,0,0-.53-1.8l2-1.05C648.85,1212.64,664.07,1206.94,679.12,1209.06Z" transform="translate(-132.02 -461.07)"/><path class="cls-8" d="M676.86,1116.21l-4.77,2.85c-4-13.26-9.68-26.35-12.51-39.73a16.88,16.88,0,0,1,1.29-2.14A129.21,129.21,0,0,0,676.86,1116.21Z" transform="translate(-132.02 -461.07)"/><path class="cls-8" d="M676.33,1210.42c-.23.14-.46.28-.69.44-3.93,3.22-6.68,7.84-9.82,11.78-2.25,4.37-16.94,15.86-14.46,19.64l1.37.18c-11.44,9.33-24.62,10.62-50.47-1.74-2.77-.83-4-1.56-4.29-2.21,9-2.55,18.86-8.09,34.31-16.42,0,0-.14-.3-.38-.78.43-.23.86-.46,1.3-.68a16.14,16.14,0,0,1,.53,1.8C656.31,1210.92,668.53,1209.66,676.33,1210.42Z" transform="translate(-132.02 -461.07)"/><path class="cls-8" d="M672.09,1119.06c.17.58.34,1.16.5,1.74-6.35,3.23-12.55,6.73-18.61,10.43a10,10,0,0,0-3.32,6.63c-.5-1.71-1.06-3.4-1.66-5.08l-.12-.22C656.84,1128.12,664.59,1123.54,672.09,1119.06Z" transform="translate(-132.02 -461.07)"/><path class="cls-19" d="M659.58,1079.33c2.83,13.38,8.52,26.47,12.51,39.73-7.5,4.48-15.25,9.06-23.21,13.5-26.11,14.55-54.42,27.58-83.48,30.55a123.62,123.62,0,0,1-4.43-19.93c-.23-8,2.07-15,11.8-16.75,31.26-13,60-32.06,87.6-51.49.16.75.32,1.5.5,2.25A16.88,16.88,0,0,0,659.58,1079.33Z" transform="translate(-132.02 -461.07)"/><path class="cls-18" d="M653.8,1152.72c0,.28.08.56.11.84l-6.82,2.89q-15.58,6.06-30.78,13l-.07.07-.19.08c-1.42-1.49-3.43-2-6.39-1-8.44,2.08-17.19,5-26.09,8-2.6-4.4-6.94-13.28-2.22-14.14,23.83-5.83,46.51-17.68,67.65-29.68.6,1.68,1.16,3.37,1.66,5.08-.59,4.83,1.19,10.45,1.63,15Z" transform="translate(-132.02 -461.07)"/><path class="cls-22" d="M653.8,1152.72l-1.51.15c-.44-4.56-2.22-10.18-1.63-15A95.31,95.31,0,0,1,653.8,1152.72Z" transform="translate(-132.02 -461.07)"/><path class="cls-21" d="M665.89,1189.5c-13.48,4-26.53,9.81-39.56,15.6C638.21,1197.23,651.79,1192.68,665.89,1189.5Z" transform="translate(-132.02 -461.07)"/><path class="cls-8" d="M647.09,1156.45l-30.85,13,.07-.07Q631.49,1162.51,647.09,1156.45Z" transform="translate(-132.02 -461.07)"/><path class="cls-19" d="M631.9,1221.31c.24.48.38.77.38.78C616.83,1230.42,607,1236,598,1238.51c-.67-1.61,4.76-2.78,7.84-4C614.81,1230.73,623.27,1225.84,631.9,1221.31Z" transform="translate(-132.02 -461.07)"/><path class="cls-21" d="M631.9,1221.31c-8.63,4.53-17.09,9.42-26.09,13.2-3.08,1.22-8.51,2.39-7.84,4-13.5,3.84-25,.94-50.43-9.37,16.21-1.9,31.8-6.52,47.11-12l.38.95c9.33-3.33,18.51-7.33,27.69-11.4,2.67-.11,3.54,3.09,4.56,5.18C627.63,1212.59,630.81,1219.06,631.9,1221.31Z" transform="translate(-132.02 -461.07)"/><path class="cls-19" d="M622.17,1206.77a2.72,2.72,0,0,1,.55-.06c-9.18,4.07-18.36,8.07-27.69,11.4l-.38-.95C603.9,1213.87,613.05,1210.27,622.17,1206.77Z" transform="translate(-132.02 -461.07)"/><path class="cls-21" d="M620.15,1183.6a21.19,21.19,0,0,0,.63,2.72c-9.6,3-19.38,6.16-29.27,9.14a3.86,3.86,0,0,0-2.82-1.78,7.85,7.85,0,0,1,4.33-1.81C602,1189.38,611.06,1186.5,620.15,1183.6Z" transform="translate(-132.02 -461.07)"/><path class="cls-18" d="M619.58,1180.11c.19,1.22.37,2.41.57,3.49-9.09,2.9-18.13,5.78-27.13,8.27a7.85,7.85,0,0,0-4.33,1.81c-4-.52-11.57,3.69-30.24,7.23a189.29,189.29,0,0,1-31.35,4.21c-.32,0-.64,0-1,0-4.8-4.37-8.52-10-12.46-15.4a81,81,0,0,0-5.09-6.44c14,5.93,28.75,5.47,43.6,2.4a81.77,81.77,0,0,0,29.35-7.31,9.32,9.32,0,0,0-.15-1.06l2.2-.74c.5.84.93,1.51,1.23,1.94,9.06,1.66,18.44-4.14,26.92-7.13l4.33-1.83a.17.17,0,0,1,.06.06c-.91,1.11.52,3.06,1,4.36C617.92,1175.69,618.75,1177.92,619.58,1180.11Z" transform="translate(-132.02 -461.07)"/><path class="cls-8" d="M616.11,1169.64c2.09,2.24,2.85,6.53,3.47,10.47-.83-2.19-1.66-4.42-2.42-6.11C616.63,1172.7,615.2,1170.75,616.11,1169.64Z" transform="translate(-132.02 -461.07)"/><path class="cls-8" d="M616.05,1169.58l-4.33,1.83c-8.48,3-17.86,8.79-26.92,7.13-.3-.43-.73-1.1-1.23-1.94,8.9-3,17.65-5.92,26.09-8C612.62,1167.53,614.63,1168.09,616.05,1169.58Z" transform="translate(-132.02 -461.07)"/><path class="cls-18" d="M597.75,1214.22l-3.76,1.26c-1.7-4.3-3.41-8.61-5.1-12.91a11.25,11.25,0,0,1-1.61-5.84l4.23-1.27C593.35,1198.05,594.58,1203.7,597.75,1214.22Z" transform="translate(-132.02 -461.07)"/><path class="cls-21" d="M591.51,1195.46l-4.23,1.27a4.44,4.44,0,0,1,1.41-3A3.86,3.86,0,0,1,591.51,1195.46Z" transform="translate(-132.02 -461.07)"/><path class="cls-16" d="M588.89,1202.57c1.69,4.3,3.4,8.61,5.1,12.91-19.54,6.48-39.78,12.06-60.26,13.87-8.82-.52-19.35-11.95-16-20.95a24.47,24.47,0,0,0,5-.17,28.82,28.82,0,0,1-1.63-2.65,20.42,20.42,0,0,1,5-.43c.77.7,1.57,1.37,2.41,2,19.63-.1,39.38-4.72,58.75-10.42A11.25,11.25,0,0,0,588.89,1202.57Z" transform="translate(-132.02 -461.07)"/><path class="cls-21" d="M558.45,1200.91c18.67-3.54,26.2-7.75,30.24-7.23a4.44,4.44,0,0,0-1.41,3c-19.37,5.7-39.12,10.32-58.75,10.42-.84-.63-1.64-1.3-2.41-2,.34,0,.66,0,1,0A189.29,189.29,0,0,0,558.45,1200.91Z" transform="translate(-132.02 -461.07)"/><path class="cls-19" d="M581.37,1177.34a9.32,9.32,0,0,1,.15,1.06,81.77,81.77,0,0,1-29.35,7.31A263.68,263.68,0,0,0,581.37,1177.34Z" transform="translate(-132.02 -461.07)"/><path class="cls-19" d="M576.09,1163.88c1.42,4.47,4.51,8.9,5.28,13.46a263.68,263.68,0,0,1-29.2,8.37c-18.12,1.33-37.19-1.89-54.46-5.87A28.27,28.27,0,0,1,490,1175c-1.39-3.86-2.59-7.53-4.72-10.49a4.2,4.2,0,0,1,.3-.6c19.07,8.32,39.73,11.15,62.94,6.53h0A163.75,163.75,0,0,0,576.09,1163.88Z" transform="translate(-132.02 -461.07)"/><path class="cls-16" d="M565.4,1163.11q.39,1.25.81,2.49a136.49,136.49,0,0,1-17.68,4.81h0c-16.69,2.37-33.71,1.65-49.66-4.26-4-.78-7.75-4.87-11.83-4a7,7,0,0,0-1.45,1.77l-1.17-.52a15.34,15.34,0,0,0-8.43-4.89,163.23,163.23,0,0,1-17.74-10.79,225.69,225.69,0,0,1-26.37-23.52l3.11,8.27c-6.53-14.35-15.43-35.47-8.26-50.57,32,35.82,85.58,58.36,133.1,45.71a123.66,123.66,0,0,0,1.16,15.61c.19,6.79,2.19,14.32,3,20.07Z" transform="translate(-132.02 -461.07)"/><path class="cls-19" d="M565.4,1163.11l-1.41.14c-.83-5.75-2.83-13.28-3-20.07A123.62,123.62,0,0,0,565.4,1163.11Z" transform="translate(-132.02 -461.07)"/><path class="cls-8" d="M498.85,1166.15c15.95,5.91,33,6.63,49.66,4.26-23.21,4.62-43.87,1.79-62.94-6.53a7,7,0,0,1,1.45-1.77C491.1,1161.28,494.82,1165.37,498.85,1166.15Z" transform="translate(-132.02 -461.07)"/><path class="cls-18" d="M521.12,1205.58a28.82,28.82,0,0,0,1.63,2.65,24.47,24.47,0,0,1-5,.17q.15-.39.33-.78A5.19,5.19,0,0,1,521.12,1205.58Z" transform="translate(-132.02 -461.07)"/><path class="cls-16" d="M521.12,1205.58a5.19,5.19,0,0,0-3,2q-.18.39-.33.78c-17.93-1.26-34.81-21.76-47.52-32.62,10.31,3.49,20.88,6.53,31.76,7.83,5.24.09,8.64,2.75,11.24,6.44C516.43,1194.59,518.41,1200.7,521.12,1205.58Z" transform="translate(-132.02 -461.07)"/><path class="cls-8" d="M491.76,1179.49c-12.07.22-25-7.2-33.54-15.51-6.87-9.52-8.68-22.42-17.38-30.72a132.06,132.06,0,0,0,17.39,14.42,138.45,138.45,0,0,0,26.17,15.68,13.42,13.42,0,0,1,.87,1.12c-1.46,3.48,1.21,7.41,4.72,10.49C490.53,1176.46,491.1,1178,491.76,1179.49Z" transform="translate(-132.02 -461.07)"/><path class="cls-8" d="M485.27,1164.48c2.13,3,3.33,6.63,4.72,10.49C486.48,1171.89,483.81,1168,485.27,1164.48Z" transform="translate(-132.02 -461.07)"/><path class="cls-8" d="M476,1158.47a15.34,15.34,0,0,1,8.43,4.89,138.45,138.45,0,0,1-26.17-15.68A163.23,163.23,0,0,0,476,1158.47Z" transform="translate(-132.02 -461.07)"/></g><path class="cls-23" d="M708.27,1148.77c-9.66,30.65-27.15,59.16-51.85,79.73-5.59,4.65-13.53,9.88-20.52,11.88,6.89.63,12.48-.88,17-1.38,8.18-.93,10.61-2,17-2.75,9.51-1.15,17.18-8.15,23.55-15.29,40.43-45.32,55.73-110,47.15-170.06,0-.12-14.47.73-15.61.79-4.84.27-6.58-.15-7.63,4.55-.92,4.13.66,10.18.81,14.46q.27,7.82.1,15.62A225,225,0,0,1,708.27,1148.77Z" transform="translate(-132.02 -461.07)"/><path class="cls-23" d="M794.07,1128.13c2.23-24.51-3.31-50.76-23.15-65.69-15.54-11.69-37.12-14-56.44-10s-36.86,13.51-53.56,23.62c-26.15,15.83-51.29,33.5-79.47,45.71s-60.42,18.67-90.22,10.73c-30-8-48.49-29.35-57.38-56.6-2.7,7.64-3.28,15.53-3.05,23.53.39,13.61,27,43.53,68.2,50.28,23.26,6.1,72-2.14,101.4-14.56a330.94,330.94,0,0,0,56.3-30.57c9-6.08,17.74-12.64,27.54-17.32,20.11-10.85,54.47-9.28,73.87-3.44s27.11,16.38,33.22,31.79C793.52,1121.14,794.92,1124.37,794.07,1128.13Z" transform="translate(-132.02 -461.07)"/><path class="cls-6" d="M525.67,480.19s16.21-5.69,23.39-1.52c6.13,3.55,10.84,10.25,17.89,10.9,5,.47,9.58-2.29,14.35-3.75a28.89,28.89,0,0,1,23.38,3,24.54,24.54,0,0,0-5.27,14.91L589,506.63a25.31,25.31,0,0,1,6.92,1.43,4.1,4.1,0,0,1,2.24,1.5,4.81,4.81,0,0,1,.4,2.61,30.59,30.59,0,0,0,5.73,18.43c-9.93-5.43-22.41-.21-33.46-2.62-9.36-2.05-16.73-9.36-25.82-12.38a30,30,0,0,0-19.46.23C530.14,506.47,534.32,496.12,525.67,480.19Z" transform="translate(-132.02 -461.07)"/><path class="cls-6" d="M681.28,599a28,28,0,0,1,5.58-18.68,23.44,23.44,0,0,0-19-2.44c-3.87,1.19-7.62,3.42-11.65,3.05-5.72-.54-9.55-6-14.52-8.86a17.17,17.17,0,0,0-18.7,1.06c7.06,11.69,4.06,20.8-.4,29.12a24.3,24.3,0,0,1,15.8-.19c7.38,2.45,13.36,8.38,21,10,9,2,19.11-2.27,27.17,2.14a24.65,24.65,0,0,1-3.61-7.39c-1.92-.46-3.82-1-5.8-1.3,1,.15,3.49-.71,5.3-.67a30.24,30.24,0,0,1-.73-3.4c-.12-.79-.09-.54-.19-1.1-.13-.74-1.73-.26-2.44-.51a12.32,12.32,0,0,0,2.28-.87S681.29,599.06,681.28,599Z" transform="translate(-132.02 -461.07)"/><path class="cls-13" d="M665,602.71a4,4,0,0,0-.46.56c-.16.24-.26.49-.43.71a1.26,1.26,0,0,1-1.37.6,1,1,0,0,1-.56-1.13c0-.33.32-.87.16-1.16-.08-.14-.36-.28-.49-.4s-.33-.28-.49-.43a47.13,47.13,0,0,1-5.24-6.23c-1.92-2.57-3.87-5.32-5.87-7.56-.52-.58-1-1.13-1.58-1.63-.37-.36-1.07-1.31-1.59-.77a4.65,4.65,0,0,1-1.16,1c-.65.31-1.25,0-1.27-.65a3.07,3.07,0,0,1,1.07-2.2.57.57,0,0,0,.16-.15A.47.47,0,0,0,646,583a2.93,2.93,0,0,1,.94-1.75,1.29,1.29,0,0,1,1.65,0,1.36,1.36,0,0,1,.37,1.62c-.13.22-.33.39-.47.62-.4.65.42,1,.83,1.43s.8.86,1.2,1.31c1,1.1,1.89,2.31,2.83,3.55,2.06,2.74,4.07,5.65,6,8a26.48,26.48,0,0,0,2.09,2.21,11.9,11.9,0,0,0,1,.89,6,6,0,0,1,.47.38c.1.1.1.19.33.12a9.11,9.11,0,0,0,1.47-.92c.57-.33,1.12-.42,1.31-.12s0,1.05-.46,1.71A5.78,5.78,0,0,1,665,602.71Z" transform="translate(-132.02 -461.07)"/><path class="cls-13" d="M646.17,602.26a.14.14,0,0,1,.16.09.58.58,0,0,1,0,.24c0,.38.15.7.43.75a1.1,1.1,0,0,0,.65-.16,3.2,3.2,0,0,0,1.27-1.1,1.88,1.88,0,0,0,.23-1.58,4.62,4.62,0,0,1-.19-.47c-.12-.47.56-1,.85-1.29s.7-.69,1-1a17.46,17.46,0,0,1,2.5-1.83c1.88-1.14,3.79-1.87,5.74-2.85a21.77,21.77,0,0,0,3-1.76,18.07,18.07,0,0,0,1.54-1.21,1.86,1.86,0,0,1,.62-.46,2.16,2.16,0,0,1,.75-.06,1.83,1.83,0,0,0,1-.13,2.72,2.72,0,0,0,1.27-1.87c0-.57-.41-.71-1-.59-.3.07-.68.17-.84,0a.9.9,0,0,1-.12-.24,1.06,1.06,0,0,0-1.18-.38,1.32,1.32,0,0,0-1,.91,2.26,2.26,0,0,0,.1,1,1.15,1.15,0,0,1-.13.94,2,2,0,0,1-.58.43c-.24.18-.48.35-.73.51-.5.32-1,.6-1.48.87-1,.53-2,1-2.93,1.38a26.72,26.72,0,0,0-5.66,3,17.23,17.23,0,0,0-2.07,1.85c-.29.3-.57.63-.86,1a1.73,1.73,0,0,1-1.59.71,1.43,1.43,0,0,0-1.23.51,3.29,3.29,0,0,0-.65,1.92,1.85,1.85,0,0,0,.12.86.43.43,0,0,0,.57.21A1.53,1.53,0,0,1,646.17,602.26Z" transform="translate(-132.02 -461.07)"/><g id="tete_de_mort" data-name="tete de mort"><path class="cls-24" d="M663.24,597.34a3.46,3.46,0,0,1-1.16,2.33c-.71.61-1.06.48-1.85.53a1.31,1.31,0,0,0-.88.28,1.14,1.14,0,0,0-.11.11,14,14,0,0,0-.37,2.54c-.52-.12-1-.28-1.58-.45h0c0-.28,0-.57,0-.85s0-.43,0-.64l-.66-.21,0,1.47-1.95-.68c0-.5,0-1,0-1.5L654,600v1.56h0c-.52-.17-1-.32-1.58-.44,0,0-.2-2.7-.29-2.9A.92.92,0,0,0,652,598a1.75,1.75,0,0,0-.77-.61c-.79-.33-1.14-.2-1.85-.89a3.37,3.37,0,0,1-1-1.64c0-.12-.05-.26-.08-.4s0-.29,0-.45a8,8,0,0,1,.16-2.08l0-.17h0a7.53,7.53,0,0,1-.08-.83c.1-4.69,3.64-7.57,7.85-4.84a20.5,20.5,0,0,1,4.76,3.78l.34.4a6.66,6.66,0,0,1,1.85,4.46c0,.25-.07.51-.12.77,0,.07,0,.14,0,.21h0A5.32,5.32,0,0,1,663.24,597.34Z" transform="translate(-132.02 -461.07)"/><path class="cls-13" d="M663.24,597.34a3.46,3.46,0,0,1-1.16,2.33c-.71.61-1.06.48-1.85.53a1.31,1.31,0,0,0-.88.28,1.14,1.14,0,0,0-.11.11,14,14,0,0,0-.37,2.54c-.52-.12-1-.28-1.58-.45l0-.85h0c0-.22,0-.43,0-.64l-.66-.21,0,1.47-1.95-.68c0-.5,0-1,0-1.5L654,600v.67h0v.89c-.52-.17-1-.32-1.58-.44,0,0-.2-2.7-.29-2.9A.92.92,0,0,0,652,598a1.75,1.75,0,0,0-.77-.61c-.79-.33-1.14-.2-1.85-.89a3.37,3.37,0,0,1-1-1.64c0-.12-.05-.26-.08-.4s0-.29,0-.45a9,9,0,0,1,.2-1.54h0a4.52,4.52,0,0,1-.06-.53c0-.21,0-.42,0-.64s0-.24,0-.36c.1-4.69,3.64-7.56,7.86-4.84a20.65,20.65,0,0,1,4.75,3.78c.12.13.23.27.34.4a6.66,6.66,0,0,1,1.85,4.46c0,.1,0,.2,0,.3a5.23,5.23,0,0,1-.07.68h0c0,.13,0,.26-.07.39A5.34,5.34,0,0,1,663.24,597.34Z" transform="translate(-132.02 -461.07)"/><path d="M659.23,596.67a2.22,2.22,0,0,1-1.5-2v-.33a15.59,15.59,0,0,0,3.13,0c0,.41,0,.83,0,1.24A1.19,1.19,0,0,1,659.23,596.67Z" transform="translate(-132.02 -461.07)"/><path class="cls-25" d="M660.63,594.56c0,.32,0,.64,0,1a1,1,0,0,1-1.35.94,1.9,1.9,0,0,1-1.29-1.72h0v-.17a15.87,15.87,0,0,0,2.67,0m.47-.49a15.31,15.31,0,0,1-3.58,0c0,.17,0,.33,0,.49a2.54,2.54,0,0,0,1.71,2.33A1.38,1.38,0,0,0,661,595.6h0l.06-1.53Z" transform="translate(-132.02 -461.07)"/><path class="cls-25" d="M657.32,598.4l-1.35-.52-.09-.78c0,.23-.09.46-.14.69-.42-.16-.83-.33-1.25-.48.43-.26.85-.5,1.28-.73Z" transform="translate(-132.02 -461.07)"/><path d="M651.08,592.14v-1.4a32.78,32.78,0,0,1,3.1,2.07c0,.11,0,.22,0,.34a1.07,1.07,0,0,1-1.55,1A2.26,2.26,0,0,1,651.08,592.14Z" transform="translate(-132.02 -461.07)"/><path class="cls-25" d="M651.3,591.12a29.65,29.65,0,0,1,2.65,1.76v.18h0a.92.92,0,0,1-1.33.87,2,2,0,0,1-1.31-1.74c0-.36,0-.71,0-1.07m-.45-.75c0,.58,0,1.15,0,1.72h0a2.53,2.53,0,0,0,1.76,2.3c1,.31,1.77-.16,1.78-1.15v-.5a30.88,30.88,0,0,0-3.55-2.37Z" transform="translate(-132.02 -461.07)"/></g><path class="cls-13" d="M576.28,515.7a6.73,6.73,0,0,0-.55.67c-.2.29-.32.59-.52.86a1.52,1.52,0,0,1-1.65.72,1.26,1.26,0,0,1-.67-1.36c.05-.4.38-1,.19-1.39-.09-.17-.43-.34-.59-.48s-.39-.34-.59-.53a56.57,56.57,0,0,1-6.3-7.48c-2.3-3.09-4.65-6.4-7.06-9.09-.62-.7-1.25-1.36-1.89-2-.45-.44-1.29-1.57-1.91-.92a5.4,5.4,0,0,1-1.41,1.17c-.78.37-1.49.07-1.52-.78a3.64,3.64,0,0,1,1.29-2.64.69.69,0,0,0,.19-.19.62.62,0,0,0,.09-.26,3.51,3.51,0,0,1,1.13-2.1,1.54,1.54,0,0,1,2-.07,1.64,1.64,0,0,1,.44,2c-.15.26-.39.46-.56.73-.48.79.5,1.2,1,1.73s1,1,1.45,1.58c1.14,1.32,2.28,2.77,3.4,4.26,2.48,3.3,4.9,6.8,7.27,9.58a32.77,32.77,0,0,0,2.51,2.67c.41.38.82.74,1.23,1.06a5.2,5.2,0,0,1,.57.46c.13.12.12.23.39.15a10.9,10.9,0,0,0,1.78-1.12c.68-.39,1.35-.5,1.57-.14s0,1.27-.55,2.06A8.33,8.33,0,0,1,576.28,515.7Z" transform="translate(-132.02 -461.07)"/><path class="cls-13" d="M553.61,515.16a.17.17,0,0,1,.19.1.92.92,0,0,1,0,.3c0,.46.18.84.52.9a1.39,1.39,0,0,0,.79-.2,3.76,3.76,0,0,0,1.51-1.32,2.25,2.25,0,0,0,.29-1.9,4.84,4.84,0,0,1-.23-.57c-.15-.56.66-1.18,1-1.54s.84-.83,1.26-1.2a20.19,20.19,0,0,1,3-2.2c2.25-1.38,4.55-2.26,6.9-3.43a26.41,26.41,0,0,0,3.59-2.11c.62-.44,1.24-.92,1.86-1.46a2,2,0,0,1,.74-.55,2.55,2.55,0,0,1,.9-.07,2.34,2.34,0,0,0,1.2-.17,3.26,3.26,0,0,0,1.52-2.24c0-.68-.5-.85-1.22-.71-.37.08-.82.21-1,0a1.32,1.32,0,0,1-.15-.29,1.25,1.25,0,0,0-1.41-.46,1.58,1.58,0,0,0-1.26,1.09,3,3,0,0,0,.11,1.15,1.38,1.38,0,0,1-.15,1.14,3.2,3.2,0,0,1-.69.52l-.88.6c-.6.39-1.19.74-1.79,1.05-1.18.64-2.36,1.16-3.52,1.67a31.76,31.76,0,0,0-6.8,3.66,20.84,20.84,0,0,0-2.49,2.23c-.34.36-.69.75-1,1.17a2,2,0,0,1-1.9.84,1.78,1.78,0,0,0-1.49.62,3.93,3.93,0,0,0-.77,2.31,2.15,2.15,0,0,0,.14,1,.52.52,0,0,0,.69.25A2.5,2.5,0,0,1,553.61,515.16Z" transform="translate(-132.02 -461.07)"/><g id="tete_de_mort-2" data-name="tete de mort"><path class="cls-24" d="M574.13,509.24a4.18,4.18,0,0,1-1.4,2.81c-.84.72-1.28.58-2.22.63a1.62,1.62,0,0,0-1.06.34c-.05,0-.08.09-.13.13a17.47,17.47,0,0,0-.44,3.06c-.64-.15-1.27-.34-1.9-.54h0l0-1,0-.76-.8-.26c0,.59,0,1.18,0,1.77-.78-.27-1.56-.55-2.35-.81,0-.61,0-1.21,0-1.82l-.8-.29v.8c0,.36,0,.72,0,1.08h0c-.64-.2-1.27-.38-1.9-.52,0,0-.24-3.25-.35-3.49a1.35,1.35,0,0,0-.15-.26,2.14,2.14,0,0,0-.94-.73c-1-.39-1.36-.24-2.21-1.07a3.88,3.88,0,0,1-1.16-2c0-.15-.07-.31-.1-.48a4.46,4.46,0,0,1-.06-.54,9.66,9.66,0,0,1,.19-2.5,1.55,1.55,0,0,1,0-.21h0c-.05-.33-.08-.66-.1-1,.13-5.65,4.38-9.1,9.45-5.82a24,24,0,0,1,5.71,4.54c.15.16.28.32.42.48a8.08,8.08,0,0,1,2.22,5.36,7.5,7.5,0,0,1-.15.93l.06.25h0A6.46,6.46,0,0,1,574.13,509.24Z" transform="translate(-132.02 -461.07)"/><path class="cls-13" d="M574.13,509.24a4.18,4.18,0,0,1-1.4,2.81c-.84.72-1.28.58-2.22.63a1.62,1.62,0,0,0-1.06.34c-.05,0-.08.09-.13.13a17.47,17.47,0,0,0-.44,3.06c-.64-.15-1.27-.34-1.9-.54l0-1h0l0-.76-.8-.26c0,.59,0,1.18,0,1.77-.78-.27-1.56-.55-2.35-.81,0-.61,0-1.21,0-1.82l-.8-.29v.8h0v1.07c-.64-.2-1.27-.38-1.9-.52,0,0-.24-3.25-.35-3.49a1.35,1.35,0,0,0-.15-.26,2.14,2.14,0,0,0-.94-.73c-1-.39-1.36-.24-2.21-1.07a3.88,3.88,0,0,1-1.16-2c0-.15-.07-.31-.1-.48a4.46,4.46,0,0,1-.06-.54,11.69,11.69,0,0,1,.24-1.86h0c0-.21-.05-.43-.07-.64s0-.51,0-.77,0-.29,0-.43c.12-5.65,4.37-9.1,9.44-5.82a24.26,24.26,0,0,1,5.71,4.54q.22.24.42.48a8.05,8.05,0,0,1,2.22,5.36c0,.12,0,.24,0,.36a7.34,7.34,0,0,1-.08.82h0l-.09.47A6.93,6.93,0,0,1,574.13,509.24Z" transform="translate(-132.02 -461.07)"/><path d="M569.31,508.44A2.68,2.68,0,0,1,567.5,506c0-.13,0-.26,0-.39a18.9,18.9,0,0,0,3.76,0c0,.5,0,1,0,1.5A1.43,1.43,0,0,1,569.31,508.44Z" transform="translate(-132.02 -461.07)"/><path class="cls-25" d="M571,505.91c0,.38,0,.76,0,1.15a1.22,1.22,0,0,1-1.64,1.12,2.27,2.27,0,0,1-1.54-2.07h0v-.2a19.12,19.12,0,0,0,3.21,0m.57-.6a18.83,18.83,0,0,1-4.31,0c0,.19,0,.39,0,.58a3.08,3.08,0,0,0,2.07,2.8,1.66,1.66,0,0,0,2.19-1.55h0c0-.61,0-1.23.07-1.84Z" transform="translate(-132.02 -461.07)"/><path class="cls-25" d="M567,510.51c-.54-.19-1.08-.4-1.62-.61,0-.32-.08-.63-.11-.95-.06.28-.11.56-.17.84l-1.5-.59c.51-.3,1-.59,1.54-.87C565.77,509.07,566.39,509.81,567,510.51Z" transform="translate(-132.02 -461.07)"/><path d="M559.51,503c0-.56,0-1.12,0-1.67a35.33,35.33,0,0,1,3.73,2.47v.41a1.3,1.3,0,0,1-1.87,1.22A2.69,2.69,0,0,1,559.51,503Z" transform="translate(-132.02 -461.07)"/><path class="cls-25" d="M559.78,501.77a36.43,36.43,0,0,1,3.18,2.11v.21h0a1.11,1.11,0,0,1-1.6,1,2.32,2.32,0,0,1-1.58-2.09v-1.28m-.55-.9c0,.69,0,1.38,0,2.07h0a3.07,3.07,0,0,0,2.12,2.76,1.48,1.48,0,0,0,2.14-1.38v-.61a35.93,35.93,0,0,0-4.27-2.84Z" transform="translate(-132.02 -461.07)"/></g><polygon class="cls-16" points="649.02 554.48 585.34 618.14 585.34 591.86 649.02 541.98 649.02 554.48"/><path class="cls-26" d="M781,1003.05h11.5a2,2,0,0,1,2,2v10H781Z" transform="translate(-132.02 -461.07)"/><polygon class="cls-23" points="614.19 618.14 585.34 618.14 649.02 554.01 662.52 554.01 614.19 618.14"/><path class="cls-13" d="M1132,1183.52v230.77H132V1194.77c36.75-8.31,77-2.18,114.84,4.89q77.13,14.41,153.56,32.25c55.92,13,113.43,18.54,170.09,9.25,45.14-7.41,86.54-29.46,129.1-46.51,24.1-9.65,48.57-17.69,74.3-20.56,7.9-.88,16.19-1.21,23.51,1.9a36.94,36.94,0,0,1,12.09,8.87c5.12,5.31,9.54,11.61,14.86,16.73,23.1,22.29,59.84,20.27,91.44,14.63,37.08-6.62,73.79-4.2,110.54-13C1061.39,1194.86,1096.49,1187.21,1132,1183.52Z" transform="translate(-132.02 -461.07)"/><path class="cls-27" d="M1132,1175.08v242.77H132V1189.33c36.75-8.31,77-2.18,114.84,4.89q77.13,14.41,153.56,32.25c55.92,13,113.43,27.54,170.09,18.25,45.14-7.41,86.54-29.46,129.1-46.51,24.1-9.65,48.57-17.69,74.3-20.56,7.9-.88,16.19-1.21,23.51,1.9a36.94,36.94,0,0,1,12.09,8.87c5.12,5.31,9.54,11.61,14.86,16.73,23.1,22.29,59.84,20.27,91.44,14.63,37.08-6.62,73.79-16.2,110.54-25C1061.39,1186.42,1096.49,1178.77,1132,1175.08Z" transform="translate(-132.02 -461.07)"/><path class="cls-13" d="M1132,1237.83v180H150V1229l1.58-.71a827.36,827.36,0,0,1,162.25,22.39c48.12,11.58,95.13,27.45,142.8,40.83C558.27,1320,664.51,1337.23,769.25,1325c115.69-13.51,224.28-62.14,337.1-91.57,8.6-2.25,19.36-3.72,24.92,3.35A12.72,12.72,0,0,1,1132,1237.83Z" transform="translate(-132.02 -461.07)"/><path class="cls-28" d="M1132,1237.83v256.49H132V1229l1.6-.71a857.06,857.06,0,0,1,165.23,22.39c49,11.58,96.87,27.45,145.41,40.83C547.76,1320,655.94,1337.23,762.6,1325c117.82-13.51,228.4-62.14,343.28-91.57,8.76-2.25,19.72-3.72,25.38,3.35A12.85,12.85,0,0,1,1132,1237.83Z" transform="translate(-132.02 -461.07)"/></g></g></svg>