<svg xmlns="http://www.w3.org/2000/svg" xmlns:xlink="http://www.w3.org/1999/xlink" viewBox="0 0 1473.73 1364.34"><defs><style>.cls-1,.cls-14{fill:none;}.cls-2{fill:#331f11;}.cls-3{fill:#6d3e14;}.cls-4{fill:#7a4916;}.cls-5{clip-path:url(#clip-path);}.cls-6{fill:#936037;}.cls-7{fill:#432918;}.cls-8{fill:#7d4e24;}.cls-9{fill:#58320c;}.cls-10{fill:#b17f4a;}.cls-11{fill:#683c11;}.cls-12{fill:#915a26;}.cls-13{fill:#020202;}.cls-14{stroke:#020202;stroke-miterlimit:10;}.cls-15{fill:#1d1d1b;}.cls-16{clip-path:url(#clip-path-2);}.cls-17{clip-path:url(#clip-path-3);}.cls-18{fill:#fab511;}.cls-19{fill:#1e1e1e;}.cls-20{fill:#ce8b0b;}</style><clipPath id="clip-path" transform="translate(-389.03 -40.44)"><polygon class="cls-1" points="1303.07 1387.88 463.28 1273.52 463.28 785.65 1303.07 900.01 1303.07 1387.88"/></clipPath><clipPath id="clip-path-2" transform="translate(-389.03 -40.44)"><polygon class="cls-1" points="1365.24 1204.66 1480.16 1131.35 1480.16 901.98 1365.24 975.25 1365.24 1204.66"/></clipPath><clipPath id="clip-path-3" transform="translate(-389.03 -40.44)"><path class="cls-1" d="M1603.94,664.5c20.54-23.72,32.11-52,39.1-95.15,2.33-14.43,4-56.32-8.44-74.51Z"/></clipPath></defs><g id="Calque_1" data-name="Calque 1"><polygon class="cls-2" points="1162.35 1168.43 280.9 1060.37 280.96 598.42 1162.41 706.48 1162.35 1168.43"/><polygon class="cls-3" points="63.38 754.04 302.12 601.02 302.63 1060.37 63.38 1215.01 63.38 754.04"/><polygon class="cls-4" points="923.1 1323.07 41.66 1215.01 41.66 754.04 923.1 862.09 923.1 1323.07"/><g class="cls-5"><path class="cls-6" d="M680.92,1113.2l-.16-15.25,348.93,43.79.11,10.53C913.9,1135.25,796.92,1123.44,680.92,1113.2Z" transform="translate(-389.03 -40.44)"/><path class="cls-7" d="M479.41,982.6c41.85,16,87.85,10.88,131.51,22.15,11.26,1.41,22.62,1.79,33.94,2.21,0,4.6,0,9.16.11,13.76-54.86-6.75-110.72-13.75-165.34-20.65,0-2.8-.06-5.6-.12-8.35Z" transform="translate(-389.03 -40.44)"/><path class="cls-8" d="M1035.68,1055.1c48.27,7,96.69,11.4,145.07,16.18l.16,14.6q-72.47-11.25-145.13-20.74Z" transform="translate(-389.03 -40.44)"/><path class="cls-9" d="M566.92,1098.69c-28.88-3.53-57.69-7-86.37-10.83-.07-3.75-.15-7.51-.15-11.3,0-1.27-.06-2.53,0-3.79l86.4,10.85Z" transform="translate(-389.03 -40.44)"/><path class="cls-7" d="M645,1020.72c-.08-4.6-.13-9.16-.11-13.76,11.7.49,23.4,1,35,2.85l.15,14.53Q662.49,1022.51,645,1020.72Z" transform="translate(-389.03 -40.44)"/><path class="cls-9" d="M566.92,1098.69l-.16-15.07c24.87,3.15,65,8.18,114,14.33l.16,15.25C643.09,1107.85,605,1103.27,566.92,1098.69Z" transform="translate(-389.03 -40.44)"/><path class="cls-8" d="M1308,1104.28c-42.36-6.14-84.73-12.37-127.12-18.4l-.16-14.6c40.14,4,80.24,8.2,120.29,14.41,6.42.82,12.92,1.63,19.31,2.41l.11,10.8,0,4.83v0C1319,1107.47,1312.45,1104.66,1308,1104.28Z" transform="translate(-389.03 -40.44)"/><path class="cls-4" d="M1321.39,1186.7v1.45A8.83,8.83,0,0,1,1321.39,1186.7Z" transform="translate(-389.03 -40.44)"/><path class="cls-10" d="M480.55,1087.86c28.68,3.8,57.49,7.3,86.37,10.83l.94,90.2c-28.22-3.69-58.45-7.09-86.4-10.82l-1.06-101.51C480.4,1080.35,480.48,1084.11,480.55,1087.86Z" transform="translate(-389.03 -40.44)"/><path class="cls-9" d="M479.41,982.6l.1,9.12c0-3-.07-6.1-.13-9.12Z" transform="translate(-389.03 -40.44)"/><path class="cls-4" d="M1320.51,1103.73l0-4.83A8.44,8.44,0,0,1,1320.51,1103.73Z" transform="translate(-389.03 -40.44)"/><path class="cls-7" d="M1269.18,1186.29c-77.47-11.26-154.94-22.45-232.47-33l-.11-10.7,284.7,35.76.09,8.36a8.83,8.83,0,0,0,0,1.45l0,3.84c-.19,1.15-.84,1.92-2.54,1.56C1302.35,1191.19,1285.77,1188.64,1269.18,1186.29Z" transform="translate(-389.03 -40.44)"/><path class="cls-9" d="M1036.6,1142.58l-.82-77.44q72.66,9.58,145.13,20.74c42.39,6,84.76,12.26,127.12,18.4,4.42.38,10.94,3.19,12.48-.51l.79,74.57Z" transform="translate(-389.03 -40.44)"/><path class="cls-8" d="M680.76,1098l-.77-73.61c118.5,12.13,237.29,25.06,355.79,40.8l.82,77.44-6.91-.84Z" transform="translate(-389.03 -40.44)"/><path class="cls-9" d="M479.63,1000.07c54.62,6.9,110.48,13.9,165.34,20.65q17.5,1.77,35,3.62l.77,73.61c-49-6.15-89.13-11.18-114-14.33l-86.4-10.85C480,1048.59,480,1024.29,479.63,1000.07Z" transform="translate(-389.03 -40.44)"/><path class="cls-9" d="M1029.69,1141.74l6.91.84.11,10.7c-2.32-.36-4.6-.68-6.91-1Z" transform="translate(-389.03 -40.44)"/><path class="cls-9" d="M1321.4,1188.15a16,16,0,0,1,0,3.84Z" transform="translate(-389.03 -40.44)"/><path class="cls-4" d="M479.51,991.72c.06,2.75.12,5.55.12,8.35h0Z" transform="translate(-389.03 -40.44)"/><path class="cls-4" d="M610.92,1004.75c-43.66-11.27-89.66-6.15-131.51-22.15l-.92-87.84S592.11,909.05,645,915.67c0,30.31-.36,60.82-.11,91.29C633.54,1006.54,622.18,1006.16,610.92,1004.75Z" transform="translate(-389.03 -40.44)"/><path class="cls-11" d="M679.84,1009.81c46.32,11.36,93.56,12.78,140.37,14.63,70.18,13.82,141.61,15.1,211.49,30,1.35.21,2.67.43,4,.65l.1,10c-118.5-15.74-237.29-28.67-355.79-40.8Z" transform="translate(-389.03 -40.44)"/><path class="cls-6" d="M679.84,1009.81c-11.58-1.83-23.28-2.36-35-2.85-.25-30.47.15-61,.11-91.29,139,17.47,381.64,47.88,534.86,67.13l.92,88.48c-48.38-4.78-96.8-9.18-145.07-16.18-1.31-.22-2.63-.44-4-.65-69.88-14.91-141.31-16.19-211.49-30C773.4,1022.59,726.16,1021.17,679.84,1009.81Z" transform="translate(-389.03 -40.44)"/><path class="cls-4" d="M1301,1085.69c-40-6.21-80.15-10.46-120.29-14.41l-.92-88.48c82.87,10.39,139.6,17.54,139.6,17.54l.92,87.76C1314,1087.32,1307.46,1086.51,1301,1085.69Z" transform="translate(-389.03 -40.44)"/><path class="cls-4" d="M1029.8,1152.27c2.31.33,4.59.65,6.91,1,77.53,10.56,155,21.75,232.47,33,16.59,2.35,33.17,4.9,49.72,7.26,1.7.36,2.35-.41,2.54-1.56l.89,84.92c-.25,2.49,1.46,7.68-2.48,6.84-16.55-2.35-33.14-4.9-49.72-7.25-79.75-11.62-159.54-23.13-239.39-34Z" transform="translate(-389.03 -40.44)"/><path class="cls-4" d="M567.86,1188.89l-.94-90.2c38.07,4.58,76.17,9.16,114,14.51,116,10.24,233,22,348.88,39.07l.94,90.25C876.72,1218.84,721.86,1209.89,567.86,1188.89Z" transform="translate(-389.03 -40.44)"/></g><polygon class="cls-12" points="941.21 936.81 59.76 828.76 59.76 784.15 941.21 892.21 941.21 936.81"/><polyline class="cls-12" points="941.21 1219.38 941.21 1308.58 59.76 1200.53 59.76 1111.32"/><polygon class="cls-12" points="138.76 1209.95 59.76 1200.53 59.76 803.63 138.76 813.06 138.76 1209.95"/><polygon class="cls-12" points="941.21 1308.58 862.21 1299.16 862.21 882.78 941.21 892.21 941.21 1308.58"/><polygon class="cls-3" points="923.1 862.09 1162.35 707.46 1162.35 1168.43 923.1 1323.07 923.1 862.09"/><polygon class="cls-3" points="1162.41 706.48 1223.08 373.83 341.63 265.77 280.96 598.42 1162.41 706.48"/><path class="cls-9" d="M1551.44,746.92c80.63-42.39,118.21-92.76,132.31-184.92,4.73-30.94-1.42-137.42-71.64-147.73Z" transform="translate(-389.03 -40.44)"/><polygon class="cls-9" points="923.1 950.85 41.66 842.66 41.66 753.35 923.1 861.53 923.1 950.85"/><polyline class="cls-9" points="923.1 1233.76 923.1 1323.07 41.66 1214.88 41.66 1125.57"/><polygon class="cls-9" points="120.66 1224.32 41.66 1214.88 41.66 753.35 120.66 762.79 120.66 1224.32"/><polygon class="cls-9" points="923.1 1323.07 844.1 1313.63 844.1 852.1 923.1 861.53 923.1 1323.07"/><ellipse class="cls-13" cx="813.78" cy="83.49" rx="22.74" ry="12.96" transform="translate(-209.71 559.44) rotate(-45)"/><path class="cls-14" d="M827.91,112.46c3.17,3.36,6.74,6.67,11,7.64a14.24,14.24,0,0,0,7.68-.54c5.78-2,10.81-7.86,9.87-14.4-.58-4-3.27-7.47-6.46-9.73s-6.86-3.5-10.48-4.72L826.73,86.4c-3.5-1.18-7.52-2.74-10.79-.44-5.58,3.91-1,10.55,2.13,14.76A129,129,0,0,0,827.91,112.46Z" transform="translate(-389.03 -40.44)"/><path class="cls-14" d="M809.25,57.58c-.73-4.68-1.81-9.53-4.75-12.7A12.63,12.63,0,0,0,798,41.29c-5.72-1.35-13,1.25-15.77,7.59A16.55,16.55,0,0,0,782.18,61c1.34,3.71,3.63,6.78,5.89,9.8l8,10.68c2.18,2.9,4.58,6.44,8.46,6.13,6.62-.52,6.52-8.89,6.28-14.3A138.54,138.54,0,0,0,809.25,57.58Z" transform="translate(-389.03 -40.44)"/><path class="cls-15" d="M876.57,935.08,863.8,903a13,13,0,1,0-11.83-.57l-13.83,27.79Z" transform="translate(-389.03 -40.44)"/><polygon class="cls-9" points="923.1 862.09 976.21 827.31 976.21 1288.29 923.1 1323.07 923.1 862.09"/><polygon class="cls-12" points="1144.24 810.71 1144.24 1056.58 1144.24 1164.64 1091.13 1199.42 1091.13 1198.97 976.21 1276 976.21 1164.22 1091.13 1090.91 1091.13 845.03 1144.24 810.71"/><polygon class="cls-9" points="923.1 861.08 923.1 969.14 1109.24 848.83 1109.24 1094.7 923.1 1215.01 923.1 1323.07 1109.24 1202.76 1109.24 1203.21 1162.35 1168.43 1162.35 1060.37 1162.35 814.5 1162.35 707.46 1162.35 706.44 923.1 861.08"/><polygon class="cls-4" points="41.66 753.35 55.44 744.47 942.48 848.66 923.1 861.53 41.66 753.35"/><polygon class="cls-4" points="41.66 753.37 61.59 755.82 302.12 601.02 280.96 598.42 41.66 753.37"/><polygon class="cls-4" points="903.17 858.64 923.1 861.08 1162.35 706.44 1142.42 704.03 903.17 858.64"/><path class="cls-13" d="M686.31,126c10.2-1,20.33-2.18,30.27-4.07l1.65,8.66c-10.35,2-20.74,3.19-31.08,4.18Z" transform="translate(-389.03 -40.44)"/><path class="cls-13" d="M580.38,141.74c10.09-2.74,20.31-4.91,30.56-6.8l1.59,8.67c-10,1.86-20,4-29.88,6.65Z" transform="translate(-389.03 -40.44)"/><path class="cls-13" d="M483.74,188.92a218.64,218.64,0,0,1,25.84-18.12l4.53,7.56a210.07,210.07,0,0,0-24.81,17.4Z" transform="translate(-389.03 -40.44)"/><path class="cls-13" d="M417.52,273.7a270.13,270.13,0,0,1,15.41-27.42l7.42,4.76a263.33,263.33,0,0,0-14.91,26.53Z" transform="translate(-389.03 -40.44)"/><path class="cls-13" d="M389,377.4a291.45,291.45,0,0,1,4.34-31.12L402,348a282.05,282.05,0,0,0-4.21,30.19Z" transform="translate(-389.03 -40.44)"/><path class="cls-13" d="M400,484.41a248.28,248.28,0,0,1-7.58-30.58l8.68-1.58a237.8,237.8,0,0,0,7.3,29.49Z" transform="translate(-389.03 -40.44)"/><path class="cls-13" d="M458,575a216.1,216.1,0,0,1-21.76-22.9l6.83-5.57a208.93,208.93,0,0,0,20.86,21.95Z" transform="translate(-389.03 -40.44)"/><path class="cls-13" d="M550.06,630.48c-9.63-4-19.16-8.23-28.5-12.9l4-7.88c9.12,4.56,18.44,8.74,27.9,12.62Z" transform="translate(-389.03 -40.44)"/><path class="cls-13" d="M652.08,662.86c-10-2.59-20-5.26-30-8.08l2.4-8.48q14.84,4.19,29.8,8Z" transform="translate(-389.03 -40.44)"/><path class="cls-13" d="M754.28,691.58q-14.55-5-29.34-9.3l2.5-8.46q14.92,4.42,29.69,9.42Z" transform="translate(-389.03 -40.44)"/><path class="cls-13" d="M848.94,737A292,292,0,0,0,823,721l4.22-7.74A306.15,306.15,0,0,1,854,729.7Z" transform="translate(-389.03 -40.44)"/><path class="cls-13" d="M918.4,813.74c-2.46-4.4-5.13-8.71-7.89-13-1.39-2.14-2.78-4.32-4.2-6.42l-4.3-6.24,7.16-5.15,4.49,6.52c1.46,2.17,2.85,4.34,4.27,6.53,2.81,4.38,5.58,8.85,8.16,13.46Z" transform="translate(-389.03 -40.44)"/><path class="cls-4" d="M1533.27,744.28" transform="translate(-389.03 -40.44)"/><polygon class="cls-4" points="1223.08 373.83 1204.15 371.51 1142.42 704.03 1162.35 706.44 1223.08 373.83"/><path class="cls-4" d="M1551.37,746.88" transform="translate(-389.03 -40.44)"/><path class="cls-9" d="M1612.11,414.27" transform="translate(-389.03 -40.44)"/><path class="cls-9" d="M691.15,641.46c80.63-42.4,118.2-92.69,132.3-184.85,4.73-30.94-1.11-137.36-71.33-147.67Z" transform="translate(-389.03 -40.44)"/><path class="cls-12" d="M1600.85,681.61c31.63-27.64,47.53-58.27,56.26-112.26,2.93-18.13,4.77-79.64-21-83Z" transform="translate(-389.03 -40.44)"/><g class="cls-16"><path class="cls-6" d="M1656.42,950.59l-7.1-13.49L1363,1141.32l4.91,9.32C1461.85,1080.62,1559.2,1014.69,1656.42,950.59Z" transform="translate(-389.03 -40.44)"/><path class="cls-7" d="M1771.75,740c-29.23,34-72.15,51.3-105.22,81.95-9.24,6.59-19.06,12.31-28.82,18.06,2.2,4,4.32,8.07,6.43,12.16,45.08-32,90.92-64.68,135.71-96.68-1.33-2.46-2.6-5-3.86-7.41Z" transform="translate(-389.03 -40.44)"/><path class="cls-8" d="M1316.62,1067.91c-39.16,29.09-79.68,55.95-120,83.13l6.8,12.93q58.42-44.33,117.86-87.17Z" transform="translate(-389.03 -40.44)"/><path class="cls-9" d="M1749.86,883.68c23.74-16.82,47.44-33.57,70.87-50.53-1.72-3.34-3.44-6.68-5.23-10q-.84-1.71-1.77-3.36s-57.83,41.25-70.88,50.58Z" transform="translate(-389.03 -40.44)"/><path class="cls-7" d="M1644.14,852.13c-2.11-4.09-4.23-8.12-6.43-12.16-10.07,6-20.11,12-29.43,19.12l6.76,12.85Q1629.59,862,1644.14,852.13Z" transform="translate(-389.03 -40.44)"/><path class="cls-9" d="M1749.86,883.68l-7-13.33c-20.4,14.59-53.28,38-93.53,66.75l7.1,13.49C1687.17,927.92,1718.53,905.79,1749.86,883.68Z" transform="translate(-389.03 -40.44)"/><path class="cls-8" d="M1100.29,1240.53q51.54-38.29,103.14-76.56l-6.8-12.93c-33.45,22.53-66.72,45.32-99,69.8-5.27,3.77-10.6,7.57-15.85,11.29l5,9.56L1089,1246l0,0C1092.17,1248.52,1096.58,1243,1100.29,1240.53Z" transform="translate(-389.03 -40.44)"/><path class="cls-4" d="M1127.67,1319.4l.68,1.29A9,9,0,0,0,1127.67,1319.4Z" transform="translate(-389.03 -40.44)"/><path class="cls-10" d="M1820.73,833.15c-23.43,17-47.13,33.71-70.87,50.53l42,79.84c23.09-16.65,48.08-34,70.9-50.55l-47.26-89.84C1817.29,826.47,1819,829.81,1820.73,833.15Z" transform="translate(-389.03 -40.44)"/><path class="cls-9" d="M1771.75,740,1776,748c-1.41-2.68-2.84-5.4-4.21-8.09Z" transform="translate(-389.03 -40.44)"/><path class="cls-4" d="M1089,1246l-2.25-4.28A8.59,8.59,0,0,0,1089,1246Z" transform="translate(-389.03 -40.44)"/><path class="cls-7" d="M1173.42,1294.25q94.24-70.05,188.91-139.45l-5-9.46L1123.78,1312l3.89,7.4a9,9,0,0,1,.68,1.29l1.78,3.39c.72.92,1.66,1.29,3,.16C1146.55,1314.31,1159.94,1304.19,1173.42,1294.25Z" transform="translate(-389.03 -40.44)"/><path class="cls-9" d="M1357.35,1145.34l-36.06-68.54q-59.38,42.93-117.86,87.17-51.67,38.16-103.14,76.56c-3.71,2.43-8.12,8-11.23,5.47l34.72,66Z" transform="translate(-389.03 -40.44)"/><path class="cls-8" d="M1649.32,937.1,1615,871.94c-98.53,66.95-196.93,134.74-293.75,204.86l36.06,68.54,5.68-4Z" transform="translate(-389.03 -40.44)"/><path class="cls-9" d="M1779.85,755.45c-44.79,32-90.63,64.69-135.71,96.68q-14.57,9.87-29.1,19.81l34.28,65.16c40.25-28.71,73.13-52.16,93.53-66.75,13.05-9.33,70.88-50.58,70.88-50.58C1802.53,798.34,1791,776.93,1779.85,755.45Z" transform="translate(-389.03 -40.44)"/><path class="cls-9" d="M1363,1141.32l-5.68,4,5,9.46c1.87-1.41,3.72-2.78,5.61-4.16Z" transform="translate(-389.03 -40.44)"/><path class="cls-9" d="M1128.35,1320.69a15.68,15.68,0,0,0,1.78,3.39Z" transform="translate(-389.03 -40.44)"/><path class="cls-4" d="M1776,748c1.26,2.45,2.53,5,3.86,7.41l0,0Z" transform="translate(-389.03 -40.44)"/><path class="cls-4" d="M1666.53,821.91c33.07-30.65,76-48,105.22-81.95l-40.9-77.73s-93.21,66.53-136.59,97.45c14.36,26.7,29.2,53.36,43.45,80.29C1647.47,834.22,1657.29,828.5,1666.53,821.91Z" transform="translate(-389.03 -40.44)"/><path class="cls-11" d="M1608.28,859.09c-35.37,32-76.28,55.67-116.59,79.52-55.2,45.5-117.46,80.54-171.88,126.84l-3.19,2.46,4.67,8.89c96.82-70.12,195.22-137.91,293.75-204.86Z" transform="translate(-389.03 -40.44)"/><path class="cls-6" d="M1608.28,859.09c9.32-7.11,19.36-13.13,29.43-19.12-14.25-26.93-29.09-53.59-43.45-80.29-114,81.39-313.13,223.36-438.83,313.05l41.2,78.31c40.31-27.18,80.83-54,120-83.13l3.19-2.46c54.42-46.3,116.68-81.34,171.88-126.84C1532,914.76,1572.91,891.08,1608.28,859.09Z" transform="translate(-389.03 -40.44)"/><path class="cls-4" d="M1097.61,1220.84c32.3-24.48,65.57-47.27,99-69.8l-41.2-78.31c-68,48.51-114.53,81.73-114.53,81.73l40.86,77.67C1087,1228.41,1092.34,1224.61,1097.61,1220.84Z" transform="translate(-389.03 -40.44)"/><path class="cls-4" d="M1367.94,1150.64c-1.89,1.38-3.74,2.75-5.61,4.16q-94.82,69.18-188.91,139.45c-13.48,9.94-26.87,20.06-40.32,30-1.31,1.13-2.25.76-3-.16l39.54,75.16c1.4,2.07,2.37,7.45,5.44,4.84,13.44-9.93,26.83-20,40.31-30q97-72.13,194.54-143.56Z" transform="translate(-389.03 -40.44)"/><path class="cls-4" d="M1791.86,963.52l-42-79.84c-31.33,22.11-62.69,44.24-93.44,66.91-97.22,64.1-194.57,130-288.48,200.05l42,79.88C1534.26,1136.54,1666.31,1055.12,1791.86,963.52Z" transform="translate(-389.03 -40.44)"/></g><g class="cls-17"><path class="cls-6" d="M1669.81,423.3l-14.42-5c-19.21,96.08-45.39,227-69,344.84l10,3.44C1616.94,651.26,1642.79,536.57,1669.81,423.3Z" transform="translate(-389.03 -40.44)"/><path class="cls-7" d="M1609.73,190.79c1.93,44.76-17.49,86.78-20.63,131.76-2.22,11.13-5.46,22-8.65,32.89,4.37,1.44,8.68,2.93,13,4.46,11-54.17,22-109.37,32.77-163.37-2.65-.88-5.29-1.82-7.88-2.76Z" transform="translate(-389.03 -40.44)"/><path class="cls-8" d="M1502.35,741.39c-8.64,48-19.81,95.33-30.59,142.74l13.8,4.76q12.27-72.3,26.28-144.22Z" transform="translate(-389.03 -40.44)"/><path class="cls-9" d="M1692.14,310.56c5.8-28.51,11.61-56.95,17.08-85.35-3.53-1.26-7.07-2.52-10.67-3.72-1.18-.45-2.38-.86-3.59-1.24,0,0-13.93,69.64-17.06,85.39Z" transform="translate(-389.03 -40.44)"/><path class="cls-7" d="M1593.47,359.9c-4.34-1.53-8.65-3-13-4.46-3.24,11.26-6.44,22.52-8.37,34.09l13.73,4.74Q1589.62,377.08,1593.47,359.9Z" transform="translate(-389.03 -40.44)"/><path class="cls-9" d="M1692.14,310.56l-14.24-4.92c-4.89,24.59-12.81,64.19-22.51,112.67l14.42,5C1676.71,385.71,1684.43,348.12,1692.14,310.56Z" transform="translate(-389.03 -40.44)"/><path class="cls-8" d="M1462.76,1015.3c7.58-42.13,15.09-84.28,22.8-126.41l-13.8-4.76c-9,39.31-17.63,78.7-24.42,118.65-1.27,6.36-2.55,12.77-3.84,19.08l10.22,3.53,4.56,1.58h0C1462.31,1026.68,1461.71,1019.61,1462.76,1015.3Z" transform="translate(-389.03 -40.44)"/><path class="cls-4" d="M1536.7,1054.07l1.38.47A10.76,10.76,0,0,0,1536.7,1054.07Z" transform="translate(-389.03 -40.44)"/><path class="cls-10" d="M1709.22,225.21c-5.47,28.4-11.28,56.84-17.08,85.35L1777.4,340c5.44-27.94,11.79-57.68,17.1-85.38l-96-33.15C1702.15,222.69,1705.69,224,1709.22,225.21Z" transform="translate(-389.03 -40.44)"/><path class="cls-9" d="M1609.73,190.79l8.63,3c-2.87-1-5.76-2-8.61-3Z" transform="translate(-389.03 -40.44)"/><path class="cls-4" d="M1458.28,1027l-4.56-1.58A8.5,8.5,0,0,0,1458.28,1027Z" transform="translate(-389.03 -40.44)"/><path class="cls-7" d="M1552.84,1004.42c13.86-77,27.78-154.07,42.31-231L1585,770c-30.48,152.51-56.24,281.37-56.24,281.37l7.9,2.73a10.76,10.76,0,0,1,1.38.47l3.62,1.26c1.15.18,2.09-.19,2.28-1.92C1547,1037.44,1549.82,1020.9,1552.84,1004.42Z" transform="translate(-389.03 -40.44)"/><path class="cls-9" d="M1585,770l-73.2-25.3q-13.92,72-26.28,144.22c-7.71,42.13-15.22,84.28-22.8,126.41-1,4.31-.45,11.38-4.44,11.68l70.48,24.36S1554.56,922.48,1585,770Z" transform="translate(-389.03 -40.44)"/><path class="cls-8" d="M1655.39,418.31l-69.58-24c-26,116.24-51.37,233-74,350.4L1585,770c.47-2.29.92-4.54,1.39-6.82C1610,645.29,1636.18,514.39,1655.39,418.31Z" transform="translate(-389.03 -40.44)"/><path class="cls-9" d="M1626.24,196.53c-10.75,54-21.8,109.2-32.77,163.37q-3.87,17.18-7.66,34.37l69.58,24c9.7-48.48,17.62-88.08,22.51-112.67,3.13-15.75,17.06-85.39,17.06-85.39C1672.13,212.28,1649.1,204.54,1626.24,196.53Z" transform="translate(-389.03 -40.44)"/><path class="cls-9" d="M1586.43,763.15c-.47,2.28-.92,4.53-1.39,6.82l10.11,3.49c.39-2.31.81-4.58,1.24-6.87Z" transform="translate(-389.03 -40.44)"/><path class="cls-9" d="M1538.08,1054.54a16.13,16.13,0,0,0,3.62,1.26Z" transform="translate(-389.03 -40.44)"/><path class="cls-4" d="M1618.36,193.77c2.59.94,5.23,1.88,7.88,2.76v0Z" transform="translate(-389.03 -40.44)"/><path class="cls-4" d="M1589.1,322.55c3.14-45,22.56-87,20.63-131.76l-83-28.68s-22.42,112.3-32.89,164.53c28.74,9.64,57.81,18.92,86.63,28.8C1583.64,344.57,1586.88,333.68,1589.1,322.55Z" transform="translate(-389.03 -40.44)"/><path class="cls-11" d="M1572.08,389.53c-3.9,47.52-17.51,92.79-30.58,137.77-9.11,71-30.51,139.11-38.51,210.12-.22,1.34-.43,2.66-.64,4l9.49,3.28c22.6-117.39,48-234.16,74-350.4Z" transform="translate(-389.03 -40.44)"/><path class="cls-6" d="M1572.08,389.53c1.93-11.57,5.13-22.83,8.37-34.09-28.82-9.88-57.89-19.16-86.63-28.8-27.45,137.39-75.43,377.16-105.7,528.58l83.64,28.91c10.78-47.41,22-94.73,30.59-142.74.21-1.31.42-2.63.64-4,8-71,29.4-139.17,38.51-210.12C1554.57,482.32,1568.18,437.05,1572.08,389.53Z" transform="translate(-389.03 -40.44)"/><path class="cls-4" d="M1447.34,1002.78c6.79-39.95,15.45-79.34,24.42-118.65l-83.64-28.91c-16.38,81.91-27.57,138-27.57,138l83,28.66C1444.79,1015.55,1446.07,1009.14,1447.34,1002.78Z" transform="translate(-389.03 -40.44)"/><path class="cls-4" d="M1596.39,766.59c-.43,2.29-.85,4.56-1.24,6.87-14.53,76.89-28.45,153.91-42.31,231-3,16.48-5.85,33-8.86,49.46-.19,1.73-1.13,2.1-2.28,1.92l80.27,27.73c2.44.56,6.83,3.82,7.28-.18,3-16.45,5.84-33,8.86-49.46,14.23-79.33,28.59-158.65,43.58-237.83Z" transform="translate(-389.03 -40.44)"/><path class="cls-4" d="M1777.4,340l-85.26-29.46c-7.71,37.56-15.43,75.15-22.33,112.74-27,113.27-52.87,228-73.42,343.29l85.3,29.47C1708,642.47,1748.55,492.74,1777.4,340Z" transform="translate(-389.03 -40.44)"/></g></g><g id="serrure"><polygon class="cls-18" points="536.53 929.57 407.26 913.72 407.26 797.97 536.53 813.82 536.53 929.57"/><path class="cls-19" d="M876.57,935.08,863.8,903a13,13,0,1,0-11.83-.57l-13.83,27.79Z" transform="translate(-389.03 -40.44)"/><path class="cls-13" d="M840.61,925.16l-2.54,5.07,38.42,4.85-2.91-7.54-24.21-2.9,11.55-25.4s-11.38-3.49-8.24-11.42c3-7.62,7.1-8.37,10.76-8.58-2.52-1.58-13.61-2.54-17.18,7.42-3.89,10.66,5.71,15.78,5.71,15.78Z" transform="translate(-389.03 -40.44)"/><polygon class="cls-20" points="536.53 929.57 554.92 925.43 554.92 906.16 536.53 903.91 536.53 929.57"/></g></svg>