<svg xmlns="http://www.w3.org/2000/svg" viewBox="0 0 893.24 1084.82"><defs><style>.cls-1{fill:#262525;}.cls-2{fill:none;}</style></defs><g id="Calque_23" data-name="Calque 23"><path d="M600.21,720.13c-50.07-20.81-135.81-4.71-157.58,3.87,6.81-16.64,10.26-69.67-5.31-98.11,44.36-14.86,148.13-9,162.89.38C618.59,645.62,609.77,711.67,600.21,720.13Z" transform="translate(-199.48 -321.49)"/><path d="M637.65,873.56c-68.44-28.43-185.64-6.43-215.4,5.3,9.31-22.75,14-95.23-7.25-134.1,60.64-20.32,202.48-12.26,222.65.51C662.78,771.72,650.72,862,637.65,873.56Z" transform="translate(-199.48 -321.49)"/><path d="M656.27,1085.14c-95.08-39.5-257.88-8.93-299.23,7.36C370,1060.89,376.54,960.21,347,906.21c84.23-28.22,281.28-17,309.3.71C691.17,943.67,674.42,1069.08,656.27,1085.14Z" transform="translate(-199.48 -321.49)"/><path class="cls-1" d="M725.05,830.85c-69.55-28.9-188.66-6.54-218.9,5.38,9.46-23.12,14.26-96.78-7.37-136.29,61.62-20.64,205.78-12.45,226.27.53C750.59,727.35,738.33,819.1,725.05,830.85Z" transform="translate(-199.48 -321.49)"/><path class="cls-1" d="M771.38,1044c-95.08-39.5-257.88-8.93-299.22,7.36,12.93-31.6,19.49-132.29-10.08-186.29,84.23-28.22,281.28-17,309.3.72C806.29,902.52,789.53,1027.94,771.38,1044Z" transform="translate(-199.48 -321.49)"/><path class="cls-2" d="M264,1177.84c15,18.81,31.57,36.34,48,53.9,8.85,9.45,17.06,20.1,27,28.38,6.17,5.14,10.33,12.79,15.62,18.89,12.27,14.11,26.57,26.28,41.05,38,20.52,16.65,41.7,32.62,64.49,46A287.87,287.87,0,0,0,495.57,1381c12.3,5.11,25.14,7.6,37.6,12,35.23,12.3,76.7,14.44,114,13,49.39-1.88,99.56-15,139.69-44.82,16.89-12.57,31.3-27.9,48.89-39.74,21.8-14.68,45.78-25.65,69.58-36.62,26.6-12.26,53.45-24.67,77-42.29,76-56.79,105.18-157.79,109.64-252.57,3.87-82.16-7.19-164.61-27.69-244.26-26.35-102.36-69.36-202.3-139.12-281.71S756.6,327.22,651,321.9c-121-6.11-239.48,57.52-315.58,151.83-31.68,39.27-56.74,83.62-75.54,130.39C241,651.19,228.34,700.68,221,750.84c-7.76,53-6.78,106.65-13.5,159.74-4.61,36.37-9.79,70.64-7.42,107.51,3.42,53.05,22.08,101.81,52.86,145.09Q258.24,1170.67,264,1177.84Z" transform="translate(-199.48 -321.49)"/></g></svg>